<?xml version="1.0" encoding="UTF-8" standalone="no"?>
<svg
   xmlns:osb="http://www.openswatchbook.org/uri/2009/osb"
   xmlns:dc="http://purl.org/dc/elements/1.1/"
   xmlns:cc="http://creativecommons.org/ns#"
   xmlns:rdf="http://www.w3.org/1999/02/22-rdf-syntax-ns#"
   xmlns:svg="http://www.w3.org/2000/svg"
   xmlns="http://www.w3.org/2000/svg"
   id="svg6625"
   version="1.1"
   viewBox="0 0 210 297"
   height="297mm"
   width="210mm">
  <defs
     id="defs6619">
    <linearGradient
       osb:paint="solid"
       id="linearGradient8835">
      <stop
         id="stop8833"
         offset="0"
         style="stop-color:#0b70b6;stop-opacity:1;" />
    </linearGradient>
    <clipPath
       id="clipPath8844"
       clipPathUnits="userSpaceOnUse">
      <g
         id="use8846">
        <g
           id="g8888"
           style="fill:#41a7d8;fill-opacity:1;stroke:none">
          <g
             id="g8886"
             style="fill:#41a7d8;fill-opacity:1;stroke:none">
            <g
               id="g8884"
               style="fill:#41a7d8;fill-opacity:1;stroke:none">
              <g
                 id="g8882"
                 style="fill:#41a7d8;fill-opacity:1;stroke:none">
                <g
                   id="g8880"
                   style="fill:#41a7d8;fill-opacity:1">
                  <g
                     id="g8878"
                     style="fill:#41a7d8;fill-opacity:1">
                    <g
                       id="g8876">
                      <path
                         id="path8874"
                         transform="scale(0.26458333)"
                         d="m 474.34766,547.68945 -0.26954,20.07813 0.13103,20.08008 c -8.88169,0.0208 -26.04756,1.31996 -32.1447,2.55273 -33.42036,6.75734 -63.04485,29.37455 -77.89843,59.4707 -8.03849,16.28746 -10.79395,27.9429 -12.20704,51.63672 -0.81985,13.74618 -1.4086,17.43395 -4.04882,25.31446 -9.04109,26.9859 -30.23541,47.29387 -57.63086,55.22461 -11.30068,3.27139 -33.30738,3.2754 -44.73047,0.008 -28.29978,-8.09526 -49.78676,-29.36271 -58.86133,-58.25977 -2.0459,-6.51545 -2.33892,-9.45947 -2.33594,-23.45117 0.004,-15.38483 0.12599,-16.34806 3.17188,-25.07227 1.74225,-4.99018 4.75811,-11.96504 6.70117,-15.5 13.32669,-24.24495 41.43295,-42.07562 67.87305,-43.05664 l 5.75,-0.21289 v -13.82812 -13.83008 l -3.75,0.004 c -6.81287,0.007 -22.55259,3.02882 -31.64258,6.07422 -19.92987,6.67713 -37.65069,18.69733 -50.22461,34.0664 -28.68242,35.05848 -34.14456,82.59254 -14.02149,122.0293 17.33976,33.98211 51.00116,57.10959 88.35547,60.70898 l -0.002,0.002 c 4.83163,0.46556 9.01001,0.90594 9.28516,0.97851 2.41768,0.63697 25.3921,-2.5169 32.5,-4.46094 31.92646,-8.73199 57.21803,-30.18481 71.48828,-60.63671 5.86722,-12.52029 8.76503,-26.01658 9.92968,-46.26563 1.09388,-19.01783 2.4161,-25.14584 7.99219,-37.04492 10.17925,-21.72189 27.79592,-37.03868 51.81641,-45.05078 6.28705,-2.09707 10.38849,-2.69676 21.4414,-3.13477 l 12.76184,-0.36174 -0.0325,19.68596 -0.21372,19.86719 10.60547,-9.48047 25.95508,-23.48047 19.05273,-17.21875 3.63281,-4.5 c -0.0388,-0.70431 -13.20133,-12.90237 -29.25,-27.10742 z m -205.5,0.85938 -10.5625,0.68359 c -60.01705,3.88018 -113.6853,44.95145 -132.77539,101.61133 -4.39575,13.04674 -6.28977,22.26657 -7.76368,37.79102 -2.86216,30.14755 6.12585,66.27528 22.91016,92.09179 9.11165,14.01491 24.08791,30.19685 36.58008,39.52344 6.65079,4.96547 23.62133,15.59375 24.89844,15.59375 0.31562,0 3.41868,1.30909 6.89453,2.9082 10.07054,4.63304 28.59248,9.62522 42.3164,11.4043 h 0.002 c 7.7362,1.00222 29.95631,0.53208 38.95507,-0.82422 26.70868,-4.02557 48.66861,-13.37855 70.56836,-30.05273 l 5.52539,-4.20703 4.97461,4.02539 c 16.95667,13.71624 37.92073,23.39445 62.68555,28.9414 8.85543,1.98339 13.00883,2.30198 29.78906,2.2793 21.29643,-0.0288 28.23478,-1.02292 46.29102,-6.62891 11.12409,-3.45373 28.65197,-11.99802 39.67969,-19.34179 8.72367,-5.8094 25.01456,-21.1173 32.6875,-30.71485 19.23658,-24.06179 32.31326,-59.25651 32.33593,-87.03906 l 0.008,-6.75 h -13.35547 -13.35547 l -0.64844,7.77148 c -1.91558,22.96929 -9.10769,43.59685 -21.81836,62.57813 -5.19787,7.76217 -23.42403,25.98959 -31.32226,31.32617 -7.52259,5.08275 -20.59757,11.68786 -29.32227,14.81055 -31.12467,11.14004 -66.59383,8.84664 -96.67773,-6.25 -6.94519,-3.48522 -20.88488,-12.43146 -21.88086,-14.04297 -0.2854,-0.46178 0.96095,-2.92107 2.76953,-5.46484 l 3.28906,-4.625 5.91211,4.49414 c 3.25141,2.47219 10.41019,6.70652 15.91016,9.4082 29.27932,14.38246 60.01421,15.69019 90.6875,3.86133 27.99379,-10.79554 51.7077,-34.40931 62.93554,-62.67383 5.02708,-12.65492 6.93562,-22.36231 7.58203,-38.55273 l 0.2313,-13.77397 18.27593,-0.14915 20.54942,-0.12542 c -0.42679,-1.1452 -53.20447,-59.59894 -53.75586,-59.52373 l -16.28711,17.75 -20,22.31836 -17.20928,19.86861 23.86943,-0.12642 17.96952,-0.33198 -0.8035,11.70307 c -1.25057,19.74875 -4.43624,30.49298 -13.22852,44.59961 -12.19181,19.56094 -31.86021,32.95874 -55.38086,37.72461 -9.96457,2.0191 -28.02913,1.49058 -37.43554,-1.09375 -8.57987,-2.35725 -21.29928,-8.51973 -28.08399,-13.60742 -3.20712,-2.40495 -6.23353,-4.65247 -6.72461,-4.99414 -0.82866,-0.57657 3.02212,-12.87891 4.03125,-12.87891 0.25006,0 2.7499,2.00738 5.55469,4.46094 17.98541,15.73323 43.71907,21.19395 67.3418,14.28906 27.51469,-8.04246 48.42421,-33.26901 51,-61.5293 l 0.66211,-7.27929 -13.89063,0.27929 -13.89062,0.2793 -0.78125,6.33984 c -1.96147,15.92051 -14.96152,30.68962 -31.40821,35.67969 -6.09879,1.85027 -18.42501,1.87853 -24.42773,0.0566 -20.63014,-6.2615 -32.9854,-24.30271 -31.625,-46.18164 0.67408,-10.8404 4.79891,-19.66801 12.9043,-27.61719 7.96981,-7.81621 18.45088,-12.77734 26.99609,-12.77734 h 3.8418 v -14 -14 h -2.9336 c -4.03442,0 -16.61016,2.69749 -22.0664,4.73242 -16.34381,6.09543 -31.45751,19.77896 -39.15039,35.44336 -4.96593,10.11171 -6.76,18.24633 -7.82813,35.51367 -1.04708,16.92741 -1.96342,22.4293 -5.70508,34.25 -5.70928,18.03682 -16.37927,35.2292 -30.77148,49.58203 -23.75566,23.69069 -52.96383,35.67289 -87.04492,35.70313 -17.03921,0.0161 -30.83365,-2.49401 -45.12696,-8.20703 -39.45706,-15.77103 -67.32059,-49.4533 -76.53515,-92.51758 -1.74769,-8.16748 -1.71792,-36.081 0.0488,-45 3.52099,-17.77523 11.69046,-36.36084 22.23046,-50.57617 20.16152,-27.19185 53.19612,-46.50233 84.4375,-49.35742 3.81997,-0.34912 8.85779,-0.87222 11.19532,-1.16211 l 4.25,-0.52735 v -13.58593 z m 195,0.0215 -9.75,0.70313 c -5.36251,0.38729 -14.10816,1.54409 -19.43555,2.57031 -56.8461,10.95001 -103.24,55.10714 -117.14844,111.5 -3.08836,12.5221 -3.63469,16.47197 -4.625,33.38672 -0.64932,11.09034 -1.26171,14.71382 -3.30273,19.55078 -7.27,17.22901 -22.81084,27.6579 -41.32617,27.73047 -20.66654,0.0811 -37.69012,-13.48018 -43.01563,-34.26758 -4.3923,-17.14492 4.03532,-37.57299 19.54102,-47.36133 5.85811,-3.69804 14.42571,-6.53906 19.71875,-6.53906 h 4.34375 v -14.09766 -14.09765 l -6.25,0.68164 c -8.27059,0.90202 -16.68062,3.06664 -23.32227,6.0039 -21.19752,9.37456 -37.54229,30.23012 -41.49023,52.94141 -1.61662,9.29991 -0.6768,25.2966 1.96093,33.38086 8.5784,26.2913 28.89641,44.47475 55.60157,49.75781 11.28684,2.23287 27.4139,0.74029 39.5,-3.65625 10.10989,-3.67759 22.94276,-13.48119 30.24609,-23.10742 10.4146,-13.72705 13.53,-22.63193 14.80469,-42.30664 1.64625,-25.41029 5.00725,-39.6644 13.20312,-55.99219 16.63272,-33.13564 47.58385,-57.70027 83.06836,-65.92968 4.73605,-1.09837 23.64453,-3.57813 27.28516,-3.57813 0.21679,0 0.39258,-6.13636 0.39258,-13.63672 z m -246,333.10547 v 27.58399 27.58398 h 5 5 v -8.39258 c 0,-5.79364 0.38713,-8.54032 1.25,-8.86914 0.68749,-0.26207 5.97499,-0.55842 11.75,-0.6582 16.98345,-0.29307 19.82657,-2.83105 19.94336,-17.8086 0.0707,-9.05306 -2.02415,-14.71037 -6.31641,-17.05273 -2.50745,-1.36834 -6.44153,-1.77399 -19.87695,-2.04688 z m 144,0.0625 v 27.55274 27.55273 h 18 18 v -5 -5 h -12.48047 -12.48047 l -0.26953,-22.25 -0.26953,-22.25 -5.25,-0.30273 z m 41,0 v 27.60547 27.60547 l 5.25,-0.30274 5.25,-0.30273 v -27 -27 l -5.25,-0.30273 z m 20,0.0293 v 27.5918 27.59179 l 5.11523,-0.30273 5.11719,-0.30274 -0.0703,-22 -0.0684,-22 2.39257,6.76172 c 1.31547,3.71928 5.17664,13.73182 8.58204,22.25 l 6.19336,15.48828 h 4.7207 4.72265 l 5.35743,-13.75 c 2.94686,-7.56249 6.77032,-17.7636 8.49609,-22.66992 l 3.13672,-8.92187 -0.48438,22.67187 -0.48437,22.66992 h 5.65234 5.6543 l -0.26563,-27.25 -0.26757,-27.25 -8.5,-0.26562 -8.5,-0.26367 -5.17969,13.76367 c -2.84878,7.57047 -5.95131,16.24064 -6.89453,19.26562 -2.31912,7.43781 -2.96638,7.86459 -4.26563,2.81446 -0.61058,-2.37321 -3.77618,-11.28943 -7.03515,-19.81446 l -5.92578,-15.5 -8.59961,-0.28906 z m -119,0.0332 -18.75,0.27149 -18.75,0.27148 -0.27344,25.9668 c -0.15118,14.28109 -0.0522,26.5436 0.21875,27.25 0.37678,0.98199 4.85633,1.2832 19.02344,1.2832 h 18.53125 v -4.5 -4.5 h -13.5 -13.5 v -7.5 -7.5 h 13 13 v -4 -4 h -13 -13 v -7 -7 h 13.5 13.5 v -4.52148 z m 282,0.004 -21.14454,0.27148 -21.14453,0.26953 -0.10547,4.5 -0.10546,4.5 7.75,0.29102 7.75,0.29297 v 22.45703 22.45898 h 5.5 5.5 v -22.5 -22.5 h 8 8 v -5.01953 z m -399.08204,0.0391 c -4.35423,0 -7.91796,0.14658 -7.91796,0.32422 0,0.17767 -4.04999,12.35739 -9,27.06641 -4.95001,14.709 -9,26.96086 -9,27.22656 0,0.2657 2.55282,0.3468 5.67187,0.18164 l 5.66992,-0.29883 1.48047,-4.5 c 0.81339,-2.47499 1.97306,-4.83032 2.57813,-5.23437 0.60502,-0.40419 5.85588,-0.74246 11.66797,-0.75 l 10.5664,-0.0156 1.73438,5.5 1.73437,5.5 h 5.52149 c 3.92356,0 5.429,-0.36185 5.19922,-1.25 -0.17783,-0.6875 -4.29801,-13.06251 -9.15626,-27.5 l -8.83398,-26.25 z m 403.08204,0.002 v 27.52149 27.52148 l 18.75,-0.27148 18.75,-0.27149 v -4 -4 l -13.25,-0.27929 -13.25,-0.2793 v -7.4707 -7.47071 h 12.5 12.5 v -4 -4 h -12.5 c -14.10811,0 -12.50108,1.12713 -12.84766,-9 l -0.1543,-4.5 13.25586,-0.5 c 7.29048,-0.275 13.25299,-0.8375 13.25,-1.25 -0.002,-0.41249 -0.004,-2.32501 -0.004,-4.25 v -3.5 h -18.5 z M 335.2832,881.885 c -6.95583,0.005 -14.62077,0.88729 -17.93554,2.50585 -5.93587,2.89849 -6.94601,5.80744 -7.32422,21.07227 -0.51867,20.93231 1.3662,27.16932 9.09961,30.10352 2.05576,0.78005 7.77272,1.14248 15.77148,1 17.11858,-0.30486 19.10918,-1.68495 20.58985,-14.28321 l 0.63867,-5.43945 h -5.63672 -5.63867 v 3.97656 c 0,5.9034 -2.73119,7.3389 -13.07618,6.86914 -6.40671,-0.29094 -8.3809,-0.75105 -9.43554,-2.19336 -3.11981,-4.2667 -3.0746,-29.49376 0.0586,-32.62695 1.85114,-1.85114 14.7933,-2.64121 18.6875,-1.14062 2.1529,0.8296 2.86921,1.90869 3.37695,5.08398 l 0.64454,4.03125 h 4.87304 4.8711 v -4.25 c -0.002,-5.73846 -2.74819,-10.86157 -7,-13.0625 -2.17359,-1.12514 -7.15437,-1.65049 -12.56446,-1.64648 z m -193.83398,0.0605 c -1.80439,-0.024 -3.79258,0.0123 -5.98242,0.0996 -16.64637,0.6638 -19.98777,3.06437 -21.72461,15.59766 -1.11663,8.05769 0.21793,28.25144 2.14258,32.41992 0.69033,1.49514 3.10133,3.63036 5.35937,4.74805 3.45819,1.71186 5.99241,2.02406 16.10352,1.98437 17.57185,-0.0692 20.95549,-2.27722 22.21679,-14.49804 l 0.56446,-5.45313 h -5.64063 -5.64062 v 3.5 c 0,2.22146 -0.76568,4.26767 -2.09766,5.59961 -1.86369,1.86376 -3.03512,2.05954 -10.46484,1.75 -11.99305,-0.49965 -11.9375,-0.41351 -11.9375,-18.3457 0,-18.18078 -0.12267,-18.00391 12.44922,-18.00391 4.88359,0 9.21332,0.33378 9.62109,0.74023 0.40777,0.40642 1.01393,2.43143 1.34765,4.5 0.60643,3.75723 0.61424,3.75951 5.99024,4.06641 l 5.38086,0.30859 -0.5586,-6.15039 c -0.86631,-9.554 -4.49821,-12.69551 -17.1289,-12.86328 z m 367.89844,0.40039 -9.19727,27.29883 -9.19727,27.29688 5.61524,-0.29883 5.61523,-0.29688 1.66797,-5 1.66602,-5 11.60351,-0.28125 11.60547,-0.28125 1.74414,5.53125 1.74219,5.53125 h 5.31836 c 2.92456,0 5.31549,-0.3375 5.3125,-0.75 -0.003,-0.41249 -4.03967,-12.675 -8.9707,-27.25 l -8.9668,-26.5 h -7.7793 z m 7.77929,8.13868 3.76563,11.10742 c 2.07088,6.10866 4.07475,12.51557 4.45312,14.23828 l 0.6875,3.13281 -9.12304,-0.25977 c -6.27054,-0.17853 -8.98691,-0.61345 -8.68946,-1.38867 0.23804,-0.62029 2.34005,-6.91027 4.66992,-13.97851 z m -288.77929,0.85937 h 9.09961 c 11.56074,0 12.40039,0.61276 12.40039,9.05078 0,4.39952 -0.47399,6.78258 -1.57032,7.87891 -1.20725,1.20707 -3.76683,1.57031 -11.03906,1.57031 h -9.46484 l 0.28711,-9.25 z m -41.80664,1.41016 c 0.53023,-0.10737 2.59401,4.85953 4.94921,11.96875 2.4378,7.35855 4.30252,13.43348 4.14454,13.5 -0.1581,0.0665 -4.1871,-0.008 -8.95508,-0.16602 l -8.66992,-0.28711 3.92187,-11.71289 c 2.15686,-6.44175 4.19197,-12.38786 4.52344,-13.21289 0.0213,-0.0531 0.0506,-0.0827 0.0859,-0.0898 z m 109.03125,57.3789 c -3.00276,0.11206 -5.96789,1.20569 -7.6543,3.34961 -4.25911,5.41459 -3.88248,12.70346 0.9043,17.49024 v 0.002 c 4.06352,4.06371 10.0104,4.04037 14.10351,-0.0527 1.6077,-1.6077 2.92188,-3.63273 2.92188,-4.5 0,-2.52828 -2.96606,-1.82404 -6,1.42382 -3.37013,3.60771 -4.10431,3.67332 -7.58008,0.6836 -2.1289,-1.83118 -2.69141,-3.19438 -2.69141,-6.51953 0,-2.6383 0.66706,-4.94161 1.79102,-6.1836 2.34916,-2.59748 7.08595,-2.58761 8.71289,0.0176 0.68697,1.10003 2.2651,2 3.50781,2 2.61267,0 2.63862,-0.0761 1.11328,-3.42383 -1.34536,-2.95271 -5.26822,-4.43118 -9.1289,-4.28711 z m 26.09765,0.008 c -1.3652,-0.0197 -2.81851,0.20751 -4.32617,0.70508 -7.72059,2.54805 -9.50129,15.70235 -2.83594,20.94532 2.87736,2.26333 8.2221,2.69181 11.65625,0.93554 4.00808,-2.04975 5.63943,-5.08993 5.66211,-10.55664 0.0311,-7.24095 -4.24039,-11.94371 -10.15625,-12.0293 z m 208.89453,0.10157 c -2.80747,-0.003 -5.64156,0.89524 -7.52343,2.90429 -4.94548,5.27982 -5.01897,12.53228 -0.17774,17.71485 2.16756,2.32036 3.64315,2.97813 6.63672,2.96679 2.1168,-0.008 4.5079,-0.43128 5.31445,-0.9414 0.93578,-0.59165 1.94689,-0.53032 2.79297,0.17187 2.23223,1.85254 3.37916,-0.52518 3.04883,-6.32226 l -0.30859,-5.39258 -4.75,-0.30469 c -4.17854,-0.26812 -4.75,-0.0644 -4.75,1.6875 0,1.51578 0.77622,2.0662 3.25,2.30469 l 3.25,0.3125 -2.76563,2.8125 c -3.10186,3.15281 -5.9575,2.99083 -8.98437,-0.50977 -2.17455,-2.51508 -2.27645,-8.60608 -0.19336,-11.58007 2.0691,-2.95416 7.88632,-3.088 9.67578,-0.22266 1.30802,2.09446 4.76758,2.77372 4.76758,0.93555 0,-4.02629 -4.60409,-6.53246 -9.28321,-6.53711 z m -88.63476,0.10156 c -5.7936,0 -8.5674,2.05472 -10.21875,7.56641 -1.5936,5.31896 -0.37909,10.321 3.24804,13.37304 4.32904,3.64279 9.80101,3.50431 14.12305,-0.35742 3.00726,-2.68705 3.26563,-3.39677 3.26563,-8.97656 0,-5.28885 -0.35131,-6.41185 -2.77149,-8.83203 -2.27149,-2.27154 -3.65492,-2.77344 -7.64648,-2.77344 z m -104.58203,0.49609 0.31054,11.50196 c 0.28411,10.52239 0.47364,11.50195 2.21094,11.50195 1.68503,0 1.93169,-0.91182 2.18945,-8.09375 l 0.28907,-8.09375 4.91601,8.14258 c 3.91518,6.48412 5.34041,8.08072 7,7.84375 1.95096,-0.27882 2.10262,-1.01634 2.36719,-11.54883 0.27972,-11.12988 0.25838,-11.24995 -2,-11.25195 -2.20649,-0.002 -2.27086,0.25139 -1.94922,7.60937 0.20436,4.67448 -0.0376,7.3847 -0.625,7.02149 -0.52619,-0.32519 -2.86474,-3.74893 -5.19726,-7.60938 -3.5294,-5.84137 -4.68381,-7.01948 -6.87696,-7.02148 z m -98.5,0.004 v 10.83398 c 0,5.95832 0.31551,11.1495 0.70117,11.53516 0.3857,0.38581 1.39817,0.5672 2.25,0.4043 1.26826,-0.24284 1.60034,-2.33242 1.83203,-11.53516 l 0.2832,-11.23828 h -2.5332 z m 11,0 v 10.83398 c 0,5.95832 0.31551,11.1495 0.70117,11.53516 0.3857,0.38502 1.40012,0.56764 2.25195,0.40625 1.08446,-0.20557 1.63997,-1.71342 1.85352,-5.0332 l 0.30273,-4.74219 h 3.9707 c 3.34137,0 4.12448,0.40746 4.94532,2.56641 0.53639,1.41082 0.97461,3.6608 0.97461,5 0,1.76821 0.5476,2.43359 2,2.43359 1.647,0 2,-0.66653 2,-3.77734 0,-2.07761 -0.66557,-4.72917 -1.48047,-5.89258 -1.30882,-1.8686 -1.30882,-2.25951 0,-3.34571 1.94634,-1.61543 1.89509,-6.42717 -0.0899,-8.4121 -1.16428,-1.16433 -3.62551,-1.57227 -9.5,-1.57227 z m 113,0 v 10.83398 c 0,5.95832 0.30136,11.13339 0.66796,11.5 1.18179,1.18179 10.29651,0.70839 13.69336,-0.71093 2.05414,-0.85826 3.78515,-2.5587 4.59571,-4.51563 1.82184,-4.39831 0.82556,-11.64562 -2.01563,-14.66992 -2.02299,-2.1535 -3.14404,-2.4375 -9.61523,-2.4375 z m 28,0 c -1.88395,0 -2,0.66666 -2,11.5 0,10.8333 0.11594,11.5 2,11.5 1.88398,0 2,-0.6667 2,-11.5 0,-10.83334 -0.11591,-11.5 -2,-11.5 z m 16.07422,0 c -8.2757,0 -9.07422,0.16948 -9.07422,1.91797 0,1.57693 0.6206,1.86733 3.5,1.63867 l 3.5,-0.27734 v 9.85937 c 0,9.19404 0.13522,9.86133 2,9.86133 1.86395,0 2,-0.66574 2,-9.79687 v -9.79883 l 3.23632,0.0488 c 2.31103,0.0342 3.33347,-0.45347 3.57422,-1.70313 0.301,-1.56291 -0.63333,-1.75 -8.73632,-1.75 z m 15.92578,0 c -1.88395,0 -2,0.66666 -2,11.5 0,10.8333 0.11594,11.5 2,11.5 1.88398,0 2,-0.6667 2,-11.5 0,-10.83334 -0.11595,-11.5 -2,-11.5 z m 38.27734,0 c -2.23763,0 -2.27734,0.19897 -2.27734,11.57422 0,10.48463 0.16464,11.54127 1.75,11.23437 1.45991,-0.28263 1.77453,-1.54697 1.88867,-7.62695 0.0753,-4.00849 0.3017,-7.45404 0.5039,-7.65625 0.20232,-0.20232 2.42598,3.08342 4.94141,7.30274 3.14177,5.26993 5.25232,7.77259 6.74414,7.99218 2.12217,0.31227 2.17188,0.0559 2.17188,-11.25 0,-10.82003 -0.12593,-11.57031 -1.95704,-11.57031 -1.74533,0 -1.98959,0.8213 -2.25,7.55664 l -0.29296,7.55469 -4.47266,-7.55469 c -3.48423,-5.8848 -4.97691,-7.55664 -6.75,-7.55664 z m 24.72266,0 c -1.88395,0 -2,0.66666 -2,11.5 0,10.8333 0.11594,11.5 2,11.5 1.88398,0 2,-0.6667 2,-11.5 0,-10.83334 -0.11595,-11.5 -2,-11.5 z m 11.39648,0 c -2.38893,0 -2.39648,0.0324 -2.39648,11.5 0,10.75419 0.12847,11.5 1.96093,11.5 1.76425,0 1.98846,-0.82221 2.25,-8.25 l 0.28907,-8.25 4.99023,8.25 c 3.88811,6.42898 5.48836,8.25 7.25,8.25 2.21643,0 2.25977,-0.22476 2.25977,-11.5 0,-10.75098 -0.12661,-11.5 -1.95704,-11.5 -1.75036,0 -1.98883,0.8216 -2.25,7.75 l -0.29296,7.75 -4.85352,-7.75 c -3.8581,-6.16059 -5.34497,-7.75 -7.25,-7.75 z m -273.39648,0.006 c -2.25891,0.003 -2.88575,1.03081 -6.5,10.65039 -2.20003,5.85543 -4.14873,11.02714 -4.33204,11.49414 -0.18333,0.46704 0.64233,0.84961 1.83594,0.84961 1.49303,0 2.5237,-0.93608 3.30274,-3 1.03022,-2.72939 1.54328,-3 5.69336,-3 4.15003,0 4.66509,0.27061 5.69531,3 0.78418,2.07761 1.80688,3 3.32617,3 1.33742,0 2.01116,-0.48797 1.72656,-1.25 -7.87672,-21.08999 -8.20246,-21.74716 -10.74804,-21.74414 z m 144,2.99414 h 3.04687 c 1.93913,0 3.9809,0.93593 5.62109,2.57617 2.19398,2.19398 2.49236,3.18976 2.01954,6.71485 -0.30531,2.27641 -1.34593,4.71701 -2.3125,5.42382 -0.96662,0.70678 -3.24653,1.28516 -5.06641,1.28516 h -3.30859 v -8 z m -46.99805,0.0312 c 1.77348,-0.0418 3.63919,0.60992 4.99805,1.96875 2.54925,2.54944 2.68575,8.98578 0.25,11.80273 -2.92479,3.38253 -5.88232,3.6548 -8.73243,0.80469 -2.96023,-2.96024 -3.41967,-8.87441 -0.96093,-12.38476 0.99054,-1.41427 2.67183,-2.14961 4.44531,-2.19141 z m -64.25,0.0391 c 0.58316,-0.0126 1.36036,0.0462 2.39648,0.12305 4.81977,0.35728 7.02152,2.69272 4.92188,5.22266 -0.78577,0.94677 -2.87346,1.58398 -5.19141,1.58398 -3.77665,0 -3.8789,-0.0916 -3.8789,-3.55664 0,-2.6657 0.002,-3.33522 1.75195,-3.37305 z m 184.64453,0.002 c 0.19209,-0.005 0.38603,9.6e-4 0.58008,0.0156 3.4152,0.25809 7.02344,3.46203 7.02344,7.59766 0,2.78301 -2.62344,8.31445 -3.94336,8.31445 -0.49089,0 -1.4921,0.19674 -2.22461,0.4375 -6.00877,1.97378 -9.82314,-9.15306 -5.03516,-14.6875 0.97584,-1.12797 2.25498,-1.64485 3.59961,-1.67773 z m -217.375,2.01953 c 0.4859,0.0289 0.98763,0.8041 1.36719,2.3164 0.33229,1.3239 0.87846,3.12387 1.21484,4 0.48102,1.25348 -0.0742,1.5918 -2.60351,1.5918 -2.67455,0 -3.09065,-0.29375 -2.47852,-1.75 0.40456,-0.96249 0.95626,-2.76251 1.22461,-4 0.31899,-1.47069 0.78949,-2.18711 1.27539,-2.1582 z"
                         style="fill:#41a7d8;fill-opacity:1;stroke:none;stroke-width:1.00000012;stroke-opacity:1" />
                    </g>
                  </g>
                </g>
              </g>
            </g>
          </g>
        </g>
      </g>
    </clipPath>
    <clipPath
       id="clipPath8493"
       clipPathUnits="userSpaceOnUse">
      <g
         id="use8495">
        <path
           id="path8497"
           d="m 78.034928,249.94447 c -0.33769,-0.8882 -0.677778,-1.0995 -1.777733,-1.10455 -0.739666,-0.003 -0.931479,0.1247 -1.182486,0.7897 -0.206359,0.54671 -0.478655,0.79375 -0.874888,0.79375 -0.557059,0 -0.5399,-0.0901 0.541685,-2.84427 1.000969,-2.5489 1.190379,-2.85297 1.82391,-2.92799 0.388821,-0.0461 0.706948,0.044 0.706948,0.2002 0,0.15616 0.409176,1.32493 0.909281,2.59727 1.154935,2.93831 1.170741,3.02076 0.597439,3.11682 -0.31393,0.0526 -0.568999,-0.16023 -0.744156,-0.62093 z m -0.880094,-2.35617 c -0.08212,-0.214 -0.22124,-0.67569 -0.309155,-1.02597 -0.228867,-0.91188 -0.502539,-0.78823 -0.85435,0.38601 -0.401617,1.34047 -0.426239,1.2843 0.503174,1.14789 0.578149,-0.0849 0.76695,-0.23008 0.660331,-0.50793 z m 3.424822,2.87917 c -0.0728,-0.0728 -0.13229,-1.42214 -0.13229,-2.99861 0,-2.79603 0.0146,-2.86633 0.59531,-2.86656 0.58412,-2.3e-4 0.5942,0.0532 0.5362,2.84428 -0.0325,1.56447 -0.0623,2.91395 -0.0661,2.99884 -0.009,0.1884 -0.74922,0.2059 -0.93307,0.022 z m 2.99215,-2.84844 -0.0817,-3.01753 2.00951,5.3e-4 c 1.61033,5.3e-4 2.0965,0.0966 2.4474,0.48437 0.53631,0.59262 0.56992,1.72301 0.0637,2.14312 -0.32198,0.26722 -0.32221,0.41012 -0.002,1.02459 0.20489,0.39273 0.37326,1.10974 0.37415,1.59336 10e-4,0.6949 -0.0955,0.8609 -0.46139,0.79158 -0.31345,-0.0594 -0.49137,-0.38581 -0.55078,-1.01053 -0.11957,-1.25682 -0.46235,-1.5864 -1.64997,-1.5864 h -1.01144 l -0.0806,1.23281 c -0.06,0.91734 -0.19514,1.24929 -0.52808,1.29722 -0.39382,0.0567 -0.45723,-0.29721 -0.52917,-2.95312 z m 3.50855,-0.78971 c 0.55553,-0.66938 -0.0269,-1.28757 -1.30212,-1.3821 -1.09656,-0.0813 -1.09754,-0.0805 -1.09754,0.8599 0,0.91678 0.0267,0.94125 1.02594,0.94125 0.6133,0 1.16582,-0.16855 1.37372,-0.41905 z m 7.20691,3.60505 c -1.42905,-0.60899 -2.01896,-3.36339 -1.03611,-4.83777 0.65596,-0.98403 2.22711,-1.45329 3.33263,-0.99537 0.76167,0.31549 1.59066,1.1742 1.59066,1.64768 0,0.41179 -0.9887,0.19203 -1.45521,-0.32346 -0.93084,-1.02857 -2.43906,-0.51008 -2.89827,0.99635 -0.27506,0.90237 0.33031,2.43564 1.07317,2.71808 0.78939,0.30012 1.85994,-0.1382 2.04249,-0.83626 0.0766,-0.29278 0.36483,-0.49692 0.70172,-0.49692 0.46922,0 0.53988,0.10677 0.39399,0.59532 -0.0978,0.32742 -0.38598,0.81265 -0.64046,1.0783 -0.53676,0.56031 -2.26288,0.81276 -3.10461,0.45405 z m 6.644194,-0.0493 c -1.507634,-0.73155 -1.938434,-3.55511 -0.75669,-4.95954 1.20216,-1.42868 3.35925,-1.28733 4.46591,0.29265 0.49006,0.69966 0.54087,2.54739 0.0968,3.52191 -0.56279,1.23519 -2.45008,1.80295 -3.80606,1.14498 z m 2.41439,-1.14035 c 1.33375,-1.33375 0.63434,-3.84848 -1.07036,-3.84848 -1.11445,0 -1.71979,0.76998 -1.71979,2.18756 0,1.08322 0.91346,2.31035 1.71979,2.31035 0.23151,0 0.71317,-0.29224 1.07036,-0.64943 z m 3.29527,-1.62429 c 0,-2.95422 0.0126,-3.01794 0.59591,-3.01794 0.46251,0 0.89191,0.48663 1.91822,2.17391 l 1.32233,2.17391 0.0768,-2.17391 c 0.0679,-1.92102 0.1345,-2.17391 0.5724,-2.17391 0.45755,0 0.49224,0.2283 0.45232,2.97656 -0.0413,2.84343 -0.0686,2.97785 -0.61038,3.00523 -0.43947,0.0222 -0.8564,-0.45427 -1.85208,-2.11666 l -1.28494,-2.14534 -0.0768,2.02244 c -0.0664,1.75061 -0.14646,2.04066 -0.59531,2.15804 -0.49262,0.12882 -0.51854,-0.0153 -0.51854,-2.88233 z m 6.84869,2.93518 c -0.0165,0 -0.06,-1.33945 -0.0967,-2.97656 l -0.0666,-2.97656 h 1.80191 c 1.52336,0 1.91668,0.0987 2.54428,0.63855 0.6616,0.56908 0.74236,0.81308 0.74236,2.24294 0,1.37735 -0.0979,1.7023 -0.69181,2.29621 -0.66557,0.66556 -1.26534,0.77542 -4.23346,0.77542 z m 3.47006,-1.45521 c 0.62385,-0.62385 0.70277,-2.26224 0.14446,-2.99897 -0.20406,-0.26928 -0.8483,-0.54988 -1.44679,-0.63015 l -1.07892,-0.14472 v 2.15151 2.1515 h 0.92604 c 0.57326,0 1.12763,-0.20159 1.45521,-0.52917 z m 3.175,-1.47861 c 0,-2.85913 0.0285,-3.0193 0.53783,-3.0193 0.51305,0 0.53438,0.136 0.46302,2.95179 -0.0653,2.5756 -0.13382,2.96039 -0.53783,3.01929 -0.41787,0.0609 -0.46302,-0.22694 -0.46302,-2.95178 z m 8.92969,2.88373 c -0.40534,-0.10593 -0.46302,-0.48115 -0.46302,-3.01202 0,-2.71462 0.0323,-2.89101 0.52916,-2.89101 0.49849,0 0.52917,0.17639 0.52917,3.04271 0,1.67348 -0.0298,3.02889 -0.0661,3.01201 -0.0364,-0.0169 -0.2745,-0.0851 -0.52916,-0.15169 z m 3.77031,-0.14166 c -0.3638,-0.18963 -0.87605,-0.75984 -1.13833,-1.26714 -1.36149,-2.63335 1.11161,-5.62659 3.64909,-4.41655 1.81525,0.86563 2.29415,3.70434 0.86589,5.1326 -0.77713,0.77713 -2.42654,1.04632 -3.37665,0.55109 z m 2.52617,-1.1698 c 0.74822,-0.80734 0.83509,-1.87641 0.24516,-3.01721 -0.32703,-0.63241 -0.5746,-0.78061 -1.30402,-0.78061 -0.49519,0 -1.08277,0.18242 -1.30573,0.40538 -0.64209,0.64208 -0.79612,2.06296 -0.32286,2.97815 0.6767,1.3086 1.71089,1.46802 2.68745,0.41429 z m 3.29466,-1.57363 c 0,-2.8524 0.0293,-3.01794 0.53494,-3.01794 0.36431,0 0.84956,0.49605 1.52135,1.55525 0.54253,0.85539 1.12825,1.77813 1.30159,2.05052 0.2599,0.40842 0.3179,0.1357 0.33073,-1.55525 0.0142,-1.86895 0.0624,-2.05052 0.54473,-2.05052 0.4979,0 0.52916,0.17639 0.52916,2.98601 0,2.83637 -0.0272,2.98601 -0.54378,2.98601 -0.39521,0 -0.88314,-0.56092 -1.78593,-2.05311 -0.68319,-1.12921 -1.30393,-2.0562 -1.37942,-2.05997 -0.0755,-0.004 -0.0941,0.86929 -0.0413,1.94015 0.0885,1.79455 0.0526,1.95835 -0.45806,2.09189 -0.53844,0.14081 -0.55406,0.0598 -0.55406,-2.87304 z m 6.74688,2.84699 c -0.0728,-0.0728 -0.13229,-1.42214 -0.13229,-2.99861 0,-2.68993 0.0326,-2.86632 0.52916,-2.86632 0.49804,0 0.52917,0.17639 0.52917,2.99861 0,2.48904 -0.0674,2.99861 -0.39688,2.99861 -0.21828,0 -0.4564,-0.0595 -0.52916,-0.13229 z m 2.91041,0 c -0.0728,-0.0728 -0.13229,-1.42214 -0.13229,-2.99861 0,-2.83662 0.006,-2.86632 0.62515,-2.86632 0.49914,0 0.88577,0.43164 1.91823,2.14155 l 1.29308,2.14156 0.0769,-2.14156 c 0.0695,-1.93635 0.12733,-2.14155 0.60373,-2.14155 0.49612,0 0.5248,0.16858 0.49114,2.8867 -0.0317,2.56334 -0.0903,2.90096 -0.52256,3.01401 -0.58984,0.15424 -0.9889,-0.27599 -2.09874,-2.26268 -0.46744,-0.83674 -0.95758,-1.58791 -1.08921,-1.66927 -0.135,-0.0834 -0.23933,0.76241 -0.23933,1.94028 0,1.67977 -0.0776,2.08818 -0.39688,2.08818 -0.21828,0 -0.45641,-0.0595 -0.52917,-0.13229 z m 7.91639,-0.0823 c -0.84045,-0.40781 -1.43409,-1.63263 -1.43409,-2.95884 0,-2.15221 1.89899,-3.56037 3.81765,-2.83089 0.81211,0.30876 1.45153,0.97563 1.4656,1.5285 0.0134,0.52616 -0.88992,0.38312 -1.2531,-0.19844 -0.47346,-0.75812 -2.01249,-0.72272 -2.55994,0.0589 -0.42363,0.60481 -0.55496,2.49284 -0.20939,3.01037 0.64864,0.97143 2.47874,1.02837 2.97949,0.0927 0.38086,-0.71165 0.33344,-0.78071 -0.53615,-0.78071 -0.62343,0 -0.79375,-0.11621 -0.79375,-0.54158 0,-0.48098 0.14066,-0.53261 1.25677,-0.46137 l 1.25677,0.0802 v 1.56421 c 0,1.01641 -0.11582,1.60268 -0.33072,1.67404 -0.18191,0.0604 -0.33073,-0.0854 -0.33073,-0.3241 0,-0.39556 -0.052,-0.39751 -0.58804,-0.022 -0.65952,0.46195 -1.91051,0.51173 -2.74037,0.10905 z m -31.86118,-2.47529 v -2.51354 h -0.92604 c -0.64676,0 -0.92604,-0.1197 -0.92604,-0.39688 0,-0.32338 0.44097,-0.39687 2.38125,-0.39687 1.94028,0 2.38125,0.0735 2.38125,0.39687 0,0.27718 -0.27929,0.39688 -0.92604,0.39688 h -0.92604 v 2.51354 c 0,2.33715 -0.0371,2.51354 -0.52917,2.51354 -0.49203,0 -0.52917,-0.17639 -0.52917,-2.51354 z m -74.083337,-7.19679 c -0.218281,-0.0789 -0.784545,-0.32158 -1.258363,-0.53918 -1.265876,-0.58134 -1.664323,-2.21531 -1.685838,-6.91339 -0.0147,-3.21015 0.05585,-3.88171 0.497153,-4.7323 0.896875,-1.72868 1.792452,-2.04479 5.80041,-2.04736 3.125192,-0.002 3.562973,0.0551 4.233333,0.55172 0.847069,0.62758 1.372235,1.88895 1.394205,3.34865 l 0.01493,0.99219 h -1.29966 -1.299661 l -0.179387,-1.06178 c -0.23775,-1.40723 -0.780623,-1.65868 -3.331084,-1.54285 -3.017199,0.13702 -3.018333,0.13885 -3.018333,4.88688 0,3.72717 0.01996,3.86637 0.624624,4.35586 0.496951,0.40229 1.051277,0.50564 2.711979,0.50564 2.463766,0 3.145688,-0.43317 3.145688,-1.9982 v -0.93987 l 1.378145,0.08 1.378144,0.08 -0.07786,1.44597 c -0.162643,3.02035 -1.269312,3.72579 -5.792633,3.69251 -1.561404,-0.0115 -3.017511,-0.0855 -3.235792,-0.16444 z m 9.590026,-0.1454 c 0.0669,-0.1819 1.161111,-3.45612 2.431574,-7.27604 l 2.309933,-6.94531 h 1.975861 1.975858 l 0.376579,0.90128 c 0.361704,0.86568 4.623504,13.36107 4.623504,13.55589 0,0.0522 -0.633101,0.0949 -1.406891,0.0949 h -1.40689 l -0.458713,-1.45521 -0.458714,-1.45521 h -3.113161 -3.113162 l -0.458713,1.45521 -0.458714,1.45521 h -1.469996 c -1.064482,0 -1.43644,-0.0912 -1.348355,-0.33073 z m 9.196818,-4.63021 c 0.003,-0.41314 -2.235208,-6.94531 -2.37974,-6.94531 -0.08331,0 -0.587369,1.40094 -1.120124,3.11319 -0.532757,1.71225 -1.047856,3.3196 -1.144661,3.57187 -0.15906,0.41451 0.0561,0.45869 2.233541,0.45869 1.325258,0 2.410201,-0.0893 2.410984,-0.19844 z m 5.819407,-2.34894 v -7.30988 l 4.431771,0.12725 c 4.843631,0.13907 5.523911,0.31269 6.287011,1.60452 0.70791,1.1984 0.86494,4.59766 0.2828,6.12198 -0.62047,1.62467 -1.65113,2.00351 -5.45069,2.00351 h -2.905058 v 2.38125 2.38125 h -1.322917 -1.322917 z m 8.207482,-0.23725 c 0.35599,-0.42894 0.45476,-2.79695 0.15593,-3.73847 -0.22917,-0.72204 -0.85118,-0.87718 -3.534766,-0.88162 l -2.182812,-0.004 v 2.51354 2.51354 h 2.613438 c 2.01901,0 2.68958,-0.0918 2.94821,-0.40338 z m 4.7571,0.27109 v -7.27604 h 4.89479 4.8948 v 1.19062 1.19063 h -3.57188 -3.57187 v 1.85208 1.85208 h 3.38043 3.38042 l -0.10092,1.05834 -0.10093,1.05833 h -3.2795 -3.2795 v 1.98438 1.98437 h 3.57187 3.57188 v 1.19063 1.19062 h -4.8948 -4.89479 z m 14.047714,6.93759 c -0.67469,-0.18693 -1.37495,-0.6052 -1.6622,-0.99285 -0.704374,-0.95061 -1.077644,-3.80197 -0.965124,-7.37254 0.15021,-4.76682 0.880144,-5.51345 5.624574,-5.75325 4.40236,-0.22251 5.82198,0.52936 6.14472,3.2544 l 0.16078,1.35751 -1.35664,0.0939 c -1.29945,0.09 -1.35664,0.0658 -1.35648,-0.57478 9e-5,-0.36781 -0.18518,-0.93335 -0.41172,-1.25677 -0.36958,-0.52766 -0.63824,-0.58804 -2.61652,-0.58804 -3.09608,0 -3.37436,0.25627 -3.53161,3.25228 -0.0657,1.25094 -0.0354,3.05872 0.0673,4.01727 0.24126,2.25285 0.68724,2.59002 3.37183,2.54915 2.86546,-0.0436 2.93236,-0.0883 3.21506,-2.14579 0.0829,-0.6032 0.20507,-0.66145 1.38744,-0.66145 h 1.29655 l -0.08,1.19062 c -0.21746,3.23746 -0.94848,3.78225 -5.21169,3.88391 -1.70347,0.0406 -3.39389,-0.0645 -4.07625,-0.25361 z m 11.08728,-6.86534 -5.3e-4,-7.216 h 1.2572 1.2572 l 0.13229,5.95312 0.13229,5.95313 3.38826,0.0742 3.38826,0.0742 -0.081,1.11647 -0.081,1.11646 -4.69636,0.0722 -4.69635,0.0722 -5.3e-4,-7.216 z m 10.84834,0.0856 v -7.11822 l 1.32309,-0.0917 1.32308,-0.0917 -1.7e-4,7.20989 -1.6e-4,7.2099 h -1.32292 -1.32292 z m 5.46806,6.94182 c -0.097,-0.097 -0.17639,-3.30295 -0.17639,-7.12431 v -6.94792 l 2.24779,-0.0856 2.24778,-0.0856 1.07962,2.77812 c 0.5938,1.52797 1.45753,3.87932 1.91941,5.22522 0.46188,1.3459 0.90438,2.44723 0.98334,2.4474 0.079,1.7e-4 0.29357,-0.56057 0.47692,-1.24608 0.18334,-0.68551 0.61073,-1.96543 0.94975,-2.84427 0.33902,-0.87884 1.01401,-2.63969 1.49999,-3.913 l 0.88358,-2.3151 h 2.058 c 1.13189,0 2.13936,-0.0298 2.23882,-0.0661 0.0995,-0.0364 0.16478,3.14854 0.14517,7.0776 l -0.0357,7.14375 h -1.26965 -1.26964 l 0.0207,-5.88698 c 0.0114,-3.23784 -0.0138,-5.88698 -0.0559,-5.88698 -0.0421,0 -0.26163,0.62508 -0.48783,1.38906 -0.53029,1.79101 -3.59667,9.7537 -3.92274,10.18646 -0.13706,0.1819 -0.69629,0.33073 -1.24273,0.33073 -0.54645,0 -1.10456,-0.14883 -1.24025,-0.33073 -0.1357,-0.1819 -0.88728,-1.9976 -1.67018,-4.03489 -0.7829,-2.0373 -1.5071,-3.82323 -1.60932,-3.96875 -0.10223,-0.14553 -0.39295,-1.00873 -0.64605,-1.91823 -0.25311,-0.90951 -0.5338,-1.65375 -0.62377,-1.65388 -0.09,-1.3e-4 -0.12945,2.67878 -0.0878,5.95313 l 0.0758,5.95335 h -1.15619 c -0.63591,0 -1.23557,-0.0794 -1.33258,-0.17639 z m 18.07986,-0.0694 c 0,-0.15038 1.02714,-3.37129 2.28254,-7.15757 l 2.28253,-6.88416 h 2.05721 2.05721 l 0.31168,0.8599 c 0.50948,1.40556 4.50258,13.25189 4.50258,13.35778 0,0.0536 -0.61536,0.0615 -1.36747,0.0175 l -1.36748,-0.08 -0.44087,-1.32292 -0.44086,-1.32291 -3.15386,-0.0738 -3.15385,-0.0738 -0.39644,1.39668 -0.39645,1.39669 -1.38823,0.08 c -0.83061,0.0478 -1.38824,-0.0299 -1.38824,-0.19346 z m 9.03317,-5.11204 c -0.92028,-3.01877 -2.2507,-6.80452 -2.35474,-6.70048 -0.10468,0.10468 -2.43442,6.99997 -2.44271,7.22964 -0.001,0.0364 1.11841,0.0661 2.48828,0.0661 2.46029,0 2.48844,-0.007 2.30917,-0.59531 z m 8.85236,5.13554 c -0.0769,-0.12446 -0.1381,-2.75864 -0.13596,-5.85375 0.002,-3.0951 -0.0598,-5.69117 -0.1377,-5.76906 -0.0779,-0.0779 -0.97679,-0.11722 -1.99757,-0.0874 l -1.85596,0.0542 -2.6e-4,-1.27074 -2.5e-4,-1.27075 5.57121,0.0765 5.57122,0.0764 -0.0809,1.11418 -0.0808,1.11418 h -1.98438 -1.98437 l -0.1323,5.94065 -0.13229,5.94065 -1.23991,0.0806 c -0.68196,0.0443 -1.30285,-0.0212 -1.37977,-0.14566 z m 8.04334,-7.00764 -2.7e-4,-7.18988 4.8951,0.0774 4.89509,0.0774 v 1.04703 1.04704 h -3.57187 -3.57188 v 1.85208 1.85208 h 3.43959 3.43958 v 1.07167 1.07166 l -3.37344,-0.0442 -3.37343,-0.0442 -0.0773,2.01527 -0.0773,2.01527 h 3.58301 3.583 v 1.19854 1.19854 l -4.89479,-0.0279 -4.89479,-0.0279 -2.6e-4,-7.18989 z M 83.357776,217.86613 c -12.968537,-1.61409 -24.692654,-9.84749 -30.669059,-21.53772 -2.949991,-5.77036 -4.268426,-11.36222 -4.284803,-18.17307 -0.01959,-8.14492 2.22035,-15.47744 6.85887,-22.4528 2.128043,-3.20013 7.415918,-8.42738 10.784436,-10.6608 5.907487,-3.91682 12.63794,-6.20929 19.647096,-6.69204 l 2.69055,-0.18531 v 3.6097 c 0,2.70773 -0.0826,3.61141 -0.33073,3.61653 -0.1819,0.004 -1.4883,0.11944 -2.90311,0.25708 -14.768465,1.43678 -26.807118,12.71663 -29.178794,27.33964 -1.665072,10.26632 1.755035,20.86557 9.102785,28.21042 8.397153,8.39384 20.154009,11.60002 31.601999,8.61808 8.057724,-2.09885 15.336954,-7.60622 19.743094,-14.93735 2.89538,-4.81746 4.14483,-9.07135 4.51632,-15.37634 0.2814,-4.77584 0.65673,-6.63794 1.85833,-9.21934 2.8683,-6.162 8.60355,-10.19867 15.6625,-11.02382 l 1.52136,-0.17784 v 3.73465 3.73466 l -0.99219,0.003 c -3.60524,0.0104 -7.56679,2.73501 -9.49274,6.52875 -1.60482,3.35146 -1.63244,6.86145 -0.1774,9.94096 1.64589,3.47459 4.75774,5.90643 8.57709,6.70279 6.32441,1.31867 12.58385,-3.12354 13.73536,-9.74776 l 0.31045,-1.78593 h 3.5789 3.5789 l -0.1878,1.90594 c -0.87006,8.8297 -7.82028,15.81522 -16.87209,16.95777 -5.24644,0.66222 -11.00257,-1.29093 -15.16036,-5.14417 l -0.79876,-0.74024 -0.61949,1.72734 c -0.34072,0.95004 -0.57659,1.76586 -0.52416,1.81293 1.08358,0.9728 3.97229,2.88726 5.39107,3.57287 3.1995,1.54612 5.86361,2.13256 9.68791,2.13256 2.79996,0 3.72815,-0.11028 5.6904,-0.6761 4.52298,-1.30422 7.76925,-3.25101 10.66945,-6.39847 4.05021,-4.39554 6.08406,-9.96072 6.09287,-16.67179 l 0.002,-1.65364 h -5.45659 -5.45659 l 2.48868,-2.71198 c 1.36878,-1.49159 3.96992,-4.37885 5.78031,-6.41614 1.8104,-2.03729 3.41385,-3.83346 3.56322,-3.99149 0.14938,-0.15803 0.73003,-0.79667 1.29033,-1.41921 0.84181,-0.93531 1.07523,-1.06921 1.34402,-0.77101 2.97432,3.29984 6.34557,7.01717 7.40633,8.16664 0.73888,0.80067 2.51617,2.73544 3.94953,4.29948 l 2.6061,2.84371 h -5.18579 -5.1858 v 2.54812 c 0,4.8029 -1.17914,9.89763 -3.23336,13.97037 -3.96932,7.86967 -11.35131,13.56311 -20.16655,15.55366 -3.50107,0.79058 -9.15389,0.7668 -12.58342,-0.0529 -4.33712,-1.03666 -8.33296,-2.85955 -11.15096,-5.08705 -0.72976,-0.57685 -1.35387,-1.00874 -1.38691,-0.95976 -0.033,0.049 -0.4643,0.61285 -0.95838,1.25306 l -0.89833,1.164 0.91344,0.7748 c 1.49052,1.2643 5.50444,3.51108 8.05718,4.50998 4.09452,1.60222 7.04812,2.12971 11.90625,2.12636 3.67618,-0.003 4.61075,-0.0952 7.10102,-0.70438 11.54911,-2.82505 20.16632,-10.65603 23.85452,-21.67805 0.92528,-2.76517 1.71595,-6.95952 1.71894,-9.1187 l 0.002,-1.12448 h 3.57188 3.57187 l -0.002,1.65365 c -0.006,6.15191 -2.72405,14.67675 -6.43287,20.17448 -6.19961,9.18992 -14.91045,15.06823 -25.72586,17.36051 -4.06169,0.86085 -11.654,0.86475 -15.57401,0.008 -6.26543,-1.36936 -11.602,-3.81627 -16.56603,-7.59582 l -1.46178,-1.11298 -2.42317,1.79004 c -4.46895,3.3013 -9.97806,5.71324 -15.754044,6.89725 -3.12106,0.63978 -9.48303,0.89101 -12.6336,0.49888 z m 0.66146,-10.21889 c -9.037581,-1.12636 -17.925629,-7.44604 -22.076081,-15.69679 -4.912707,-10.48872 -4.084166,-21.16579 2.150771,-30.60785 1.545958,-2.23631 5.250413,-5.87698 7.469881,-7.34127 3.943607,-2.60179 9.225229,-4.53583 13.115719,-4.80275 1.09205,-0.0749 2.31297,-0.18702 2.71315,-0.2491 l 0.7276,-0.11288 v 3.51762 3.51761 l -2.35966,0.31417 c -11.153384,1.48497 -19.001844,9.70494 -20.003212,20.95008 -0.282972,3.17773 0.726784,8.05689 2.326674,11.2425 2.343552,4.66636 6.723714,8.71737 11.599762,10.72809 5.028776,2.0737 11.534716,2.11999 16.642096,0.11843 5.246224,-2.05598 9.726454,-6.33188 12.196494,-11.64027 1.24047,-2.6659 1.80942,-5.46245 2.07521,-10.20024 0.28048,-4.99982 0.77917,-7.25455 2.44423,-11.05115 2.81124,-6.41009 7.68498,-11.46225 14.10446,-14.6208 3.89524,-1.91656 6.82981,-2.6372 11.59772,-2.84802 l 3.9248,-0.17354 -0.0321,-5.22552 c -0.0177,-2.87808 0.073,-5.22552 0.20197,-5.22552 0.12876,0 1.65609,1.27992 3.39406,2.84427 1.73797,1.56435 5.14943,4.6139 7.58103,6.77679 2.4316,2.16289 4.42109,4.01899 4.42109,4.12468 0,0.10568 -0.38695,0.54198 -0.8599,0.96955 -0.47294,0.42758 -3.28796,2.97678 -6.2556,5.66491 -7.87272,7.13122 -8.17429,7.40102 -8.27274,7.40137 -0.0494,1.7e-4 -0.0529,-2.26202 -0.008,-5.02709 l 0.0822,-5.0274 -2.9926,0.002 c -8.14269,0.005 -15.05306,3.99092 -19.2933,11.1283 -1.89747,3.19391 -2.619,5.82372 -2.89889,10.56568 -0.31306,5.30423 -0.65389,7.51437 -1.61053,10.44375 -1.79235,5.48845 -5.49866,10.56165 -10.27842,14.0691 -3.54986,2.60493 -8.887034,4.80017 -13.049884,5.36756 -1.94143,0.26461 -7.00754,0.32457 -8.77825,0.10388 z m 2.38125,-10.56274 c -3.30734,-0.46781 -6.61338,-1.72534 -9.182009,-3.4926 -2.028048,-1.39533 -4.5347,-4.33778 -5.7301,-6.7263 -2.485257,-5.47962 -2.86807,-9.75918 -1.175608,-14.56342 1.106969,-3.15554 2.23479,-4.96671 4.578345,-7.35235 3.204581,-3.26213 7.292372,-5.22499 11.416522,-5.48193 l 2.02382,-0.12609 0.0366,3.44646 0.0366,3.44646 -1.83619,0.30971 c -3.91172,0.6598 -7.216579,3.09236 -8.800886,6.47795 -3.346114,7.15047 0.427143,14.89921 8.131046,16.69786 5.94734,1.38854 12.32971,-2.59503 13.80705,-8.61771 0.160629,-0.65485 0.349834,-2.55985 0.420464,-4.23333 0.72852,-17.26132 11.92973,-31.83078 28.34314,-36.86604 2.75202,-0.84426 8.31972,-1.75361 10.78177,-1.76096 l 0.72761,-0.002 v 3.5493 3.5493 l -2.05052,0.15834 c -8.374,0.64664 -15.71665,4.10166 -21.52765,10.12966 -2.64814,2.74702 -4.06842,4.76769 -5.81073,8.2671 -2.16122,4.34077 -3.02575,7.94025 -3.41368,14.21291 -0.2702,4.36906 -0.62965,5.84265 -2.18243,8.94702 -1.49601,2.99086 -5.016575,6.47912 -8.005224,7.93177 -3.38627,1.64592 -7.7189,2.50486 -10.5879,2.09906 z"
           style="fill:#0da1b8;fill-opacity:1;stroke-width:0.26458335" />
      </g>
    </clipPath>
  </defs>
  <metadata
     id="metadata6622">
    <rdf:RDF>
      <cc:Work
         rdf:about="">
        <dc:format>image/svg+xml</dc:format>
        <dc:type
           rdf:resource="http://purl.org/dc/dcmitype/StillImage" />
        <dc:title></dc:title>
      </cc:Work>
    </rdf:RDF>
  </metadata>
  <g
     id="layer1">
    <g
       id="g8471">
      <g
         id="g8486">
        <path
           transform="scale(0.26458333)"
           id="path8550"
           d="m 303.64301,779.79257 c -5.68475,-0.71045 -16.01223,-3.44848 -22.60463,-5.99294 -27.26195,-10.52229 -51.36455,-33.104 -61.82714,-57.92578 -4.24479,-10.07049 -7.47157,-21.62592 -9.00635,-32.25271 -0.98186,-6.79844 -0.84097,-23.06667 0.25907,-29.91179 1.85397,-11.53664 5.14328,-22.23473 9.95367,-32.37309 6.71095,-14.14398 13.78447,-23.5227 26.26293,-34.82186 9.47911,-8.58326 18.04356,-13.97861 30.43918,-19.17579 11.02758,-4.6236 20.66185,-7.04366 31.98542,-8.03451 3.2903,-0.28791 7.0943,-0.66445 8.45333,-0.83674 l 2.47098,-0.31326 v 13.05393 c 0,7.8508 -0.19598,13.05395 -0.49167,13.05395 -2.27612,0 -16.02339,2.4113 -20.68252,3.62776 -28.07207,7.32938 -49.80371,27.61993 -58.92432,55.01687 -3.51517,10.55902 -4.37326,15.70627 -4.40261,26.40889 -0.0297,10.83203 0.9429,16.87834 4.41685,27.45769 4.2148,12.83548 9.78248,21.67772 20.23471,32.13549 16.5469,16.55566 33.74424,24.09184 56.56576,24.78812 10.77967,0.32889 16.68506,-0.23675 25.39251,-2.43215 23.39225,-5.89787 43.57758,-22.86545 54.62015,-45.91313 4.97076,-10.37478 6.98757,-19.57848 8.31589,-37.94943 1.40329,-19.40771 2.89078,-27.14865 7.37938,-38.40248 11.94779,-29.95559 33.87547,-51.87592 63.96542,-63.94404 11.12413,-4.46152 19.54844,-6.0036 37.77697,-6.91512 l 12.35487,-0.61781 v -19.37255 c 0,-10.6549 0.19503,-19.49308 0.4334,-19.6404 0.23837,-0.14732 2.52077,1.52361 5.072,3.71317 8.61825,7.39654 43.62004,38.797 48.20693,43.24693 l 4.55297,4.41701 -1.17163,1.27069 c -1.33199,1.44461 -53.41745,48.67245 -55.38889,50.22317 l -1.28495,1.01075 0.18024,-18.86308 0.18024,-18.86309 -11.96472,0.2648 c -9.58546,0.21214 -12.99917,0.48868 -17.16676,1.39065 -22.05879,4.77408 -39.82239,16.9177 -52.55336,35.92676 -6.70618,10.01325 -10.78747,20.02216 -12.40481,30.42149 -0.44497,2.86112 -1.17326,10.23503 -1.61842,16.38645 -1.46714,20.27399 -3.15845,29.72528 -7.3203,40.90699 -8.07152,21.68587 -24.84536,42.08582 -44.23522,53.79785 -10.15078,6.13136 -25.06581,12.17567 -35.76495,14.49373 -2.72775,0.59099 -7.60795,1.30895 -10.84488,1.59547 -6.99547,0.6192 -24.67492,0.58549 -29.81474,-0.0569 z"
           style="fill:#32a9d6;fill-opacity:1;stroke:none;stroke-width:0.52020502px;stroke-linecap:butt;stroke-linejoin:miter;stroke-opacity:1" />
        <path
           transform="scale(0.26458333)"
           id="path8552"
           d="m 310.82522,739.56132 c -9.98769,-1.91961 -19.68686,-5.49371 -27.7556,-10.22781 -10.68993,-6.27201 -22.45138,-19.98901 -27.40886,-31.96611 -7.68972,-18.57806 -8.42177,-34.02196 -2.43058,-51.27789 3.72253,-10.72173 8.70689,-18.66828 16.91891,-26.9738 12.52032,-12.66286 26.47454,-19.35258 43.41007,-20.81098 3.62635,-0.31228 6.65053,-0.49793 6.72042,-0.41255 0.0699,0.0854 0.26527,5.83027 0.43419,12.76644 l 0.30711,12.61121 -1.14596,0.24729 c -0.63028,0.136 -3.16197,0.60738 -5.62598,1.04749 -14.79463,2.64257 -26.64034,11.09509 -32.85577,23.44426 -3.68579,7.32314 -5.1717,13.65092 -5.14343,21.90339 0.0416,12.13887 4.49236,22.36329 13.46765,30.93824 6.15668,5.88205 13.03416,9.58001 21.80006,11.7217 5.1978,1.26992 14.33514,1.13725 19.69643,-0.28599 15.89378,-4.21926 28.69713,-16.60705 32.48947,-31.43495 0.53583,-2.09508 1.23571,-7.53748 1.5553,-12.09424 1.58042,-22.53451 3.16358,-31.8489 7.87452,-46.32916 7.85618,-24.14798 21.49295,-45.80291 39.64009,-62.94773 17.75767,-16.77687 42.40799,-30.51015 64.69729,-36.04439 11.30286,-2.8064 27.22324,-5.2398 34.28111,-5.2398 h 3.87489 v 13.02145 c 0,9.97125 -0.15232,13.06498 -0.65025,13.20729 -0.35764,0.10221 -3.96059,0.45683 -8.00656,0.78805 -30.65195,2.50925 -58.6403,15.86353 -80.32359,38.32534 -11.38753,11.7964 -19.41396,24.15381 -25.64267,39.47918 -5.56981,13.70419 -7.44261,23.24415 -9.44627,48.11896 -1.17582,14.59744 -2.59991,20.27433 -7.5688,30.1719 -5.84448,11.64167 -18.42744,24.36591 -29.96414,30.30059 -13.19442,6.78744 -31.61639,10.17879 -43.19905,7.95262 z"
           style="fill:#32a9d6;fill-opacity:1;stroke:none;stroke-width:0.52020502px;stroke-linecap:butt;stroke-linejoin:miter;stroke-opacity:1" />
        <path
           transform="scale(0.26458333)"
           id="path8554"
           d="m 374.54206,904.66618 c -3.35866,-0.4924 -6.38247,-1.87736 -8.03189,-3.67877 -2.6982,-2.94682 -3.98436,-10.77374 -3.96193,-24.11011 0.0353,-20.97446 2.15132,-23.89253 18.34521,-25.29855 3.57641,-0.31051 8.37531,-0.41832 10.66421,-0.23956 10.57572,0.82593 13.95116,3.92859 15.1082,13.8873 l 0.33867,2.91493 -2.00118,0.33063 c -1.10065,0.18184 -3.20959,0.3332 -4.68653,0.33635 l -2.68535,0.006 -0.36817,-2.21087 c -0.55847,-3.35365 -2.10978,-6.0322 -3.7612,-6.49424 -0.78333,-0.21916 -4.58448,-0.38571 -8.44701,-0.3701 -8.3728,0.0338 -10.22347,0.61355 -11.74502,3.67911 -0.90278,1.81891 -1,3.22847 -1,14.49969 0,11.78024 0.0648,12.62538 1.14898,14.97346 1.71139,3.70664 3.09142,4.12427 12.95209,3.91959 9.49447,-0.19707 9.68063,-0.29763 10.84396,-5.85778 0.41138,-1.96617 1.05344,-3.7686 1.4268,-4.0054 0.37336,-0.23681 2.48946,-0.43414 4.70245,-0.43852 l 4.02361,-0.008 -0.2918,3.25128 c -0.46512,5.18248 -1.28061,8.84596 -2.36562,10.6273 -1.3,2.13431 -4.46588,3.64228 -9.03197,4.30209 -4.2762,0.61793 -16.91872,0.60863 -21.17651,-0.0156 z"
           style="fill:#32a9d6;fill-opacity:1;stroke:none;stroke-width:0.52020502px;stroke-linecap:butt;stroke-linejoin:miter;stroke-opacity:1" />
        <path
           transform="scale(0.26458333)"
           id="path8556"
           d="m 414.18658,878.62236 v -26.975 h 4.62215 4.62215 l 0.38428,22.29793 0.38428,22.29793 3.91554,0.33099 c 2.15355,0.18204 7.94168,0.33098 12.86251,0.33098 h 8.94698 l -0.24757,4.03159 c -0.13616,2.21738 -0.27657,4.06098 -0.31203,4.09689 -0.0354,0.0359 -7.96507,0.17743 -17.62137,0.31449 l -17.55692,0.2492 z"
           style="fill:#32a9d6;fill-opacity:1;stroke:none;stroke-width:0.52020502px;stroke-linecap:butt;stroke-linejoin:miter;stroke-opacity:1" />
        <path
           transform="scale(0.26458333)"
           id="path8560"
           d="m 455.28277,879.03223 v -26.71646 l 3.19754,-0.3342 c 1.75865,-0.18382 3.86548,-0.33421 4.68185,-0.33421 h 1.4843 v 27.05066 27.05066 h -4.68184 -4.68185 z"
           style="fill:#32a9d6;fill-opacity:1;stroke:none;stroke-width:0.52020502px;stroke-linecap:butt;stroke-linejoin:miter;stroke-opacity:1" />
        <path
           transform="scale(0.26458333)"
           id="path8562"
           d="m 477.39149,905.29288 -1.56062,-0.33269 -0.32186,-11.96062 c -0.17702,-6.57835 -0.35259,-18.42112 -0.39015,-26.31727 l -0.0683,-14.35663 5.54308,-0.33916 c 3.04869,-0.18653 6.85269,-0.33849 8.45333,-0.33767 l 2.91026,0.001 2.26169,5.85082 c 1.24394,3.21796 4.00021,10.64972 6.12505,16.51503 4.95031,13.66458 6.48113,17.33282 7.01185,16.8021 0.23569,-0.23569 1.3584,-3.3321 2.49491,-6.88091 1.13651,-3.5488 4.24704,-12.13745 6.91228,-19.08589 l 4.8459,-12.63351 7.80308,-0.15525 c 4.29169,-0.0854 7.92012,-0.0774 8.06318,0.0178 0.14305,0.0952 0.32483,12.09242 0.40394,26.6605 l 0.14384,26.48743 h -4.69011 -4.69011 l -0.13558,-22.49886 -0.13557,-22.49887 -1.49611,4.42174 c -2.21761,6.55415 -10.32599,28.06389 -12.94248,34.33353 -2.17598,5.21409 -2.37188,5.49285 -4.31363,6.13801 -2.16512,0.71938 -5.30698,0.44493 -6.67885,-0.58342 -0.96511,-0.72345 -13.17634,-31.13135 -15.43543,-38.43668 -0.8591,-2.77812 -1.76884,-5.17895 -2.02164,-5.33519 -0.92652,-0.57262 -1.20433,8.19639 -0.83541,26.36895 l 0.37782,18.611 -3.03687,-0.0616 c -1.67029,-0.0339 -3.73916,-0.21126 -4.59749,-0.39425 z"
           style="fill:#32a9d6;fill-opacity:1;stroke:none;stroke-width:0.52020502px;stroke-linecap:butt;stroke-linejoin:miter;stroke-opacity:1" />
        <path
           transform="scale(0.26458333)"
           id="path8564"
           d="m 544.56356,903.79791 c 0.19006,-0.78681 4.06545,-12.72552 8.61199,-26.53046 l 8.26643,-25.09989 h 7.68587 7.68587 l 8.77229,25.8802 c 4.82476,14.23411 8.87371,26.17282 8.99766,26.53046 0.16998,0.49046 -0.99219,0.65025 -4.72935,0.65025 h -4.9547 l -1.65894,-4.97954 c -0.91241,-2.73875 -1.92661,-5.06659 -2.25377,-5.17298 -0.32716,-0.10639 -5.79463,-0.26641 -12.14994,-0.35559 l -11.55512,-0.16216 -1.43468,5.33514 -1.43469,5.33513 h -5.09723 -5.09724 z m 32.83734,-16.06408 c 0.64375,-0.17252 1.17046,-0.70278 1.17046,-1.17836 0,-0.87259 -5.65286,-18.01393 -7.7967,-23.64217 -0.693,-1.81933 -1.34732,-2.85021 -1.6298,-2.56773 -0.7207,0.7207 -9.31004,26.76026 -8.99514,27.26978 0.31011,0.50176 15.43341,0.60562 17.25118,0.11848 z"
           style="fill:#32a9d6;fill-opacity:1;stroke:none;stroke-width:0.52020502px;stroke-linecap:butt;stroke-linejoin:miter;stroke-opacity:1" />
        <path
           transform="scale(0.26458333)"
           id="path8566"
           d="m 611.67849,902.03093 c -0.18382,-1.75864 -0.33421,-10.73852 -0.33421,-19.95528 0,-9.21677 -0.14887,-17.84384 -0.33081,-19.17128 l -0.33081,-2.41353 h -7.21217 -7.21216 v -4.50584 -4.50585 l 20.64545,0.35486 c 11.355,0.19517 20.74384,0.45324 20.86409,0.57349 0.12026,0.12026 0.0527,1.87116 -0.15014,3.89089 l -0.36879,3.67225 h -7.40761 -7.40761 l -0.3413,10.53415 c -0.18772,5.79378 -0.34299,13.34326 -0.34504,16.77661 -0.002,3.43335 -0.15548,8.876 -0.34095,12.09477 l -0.33722,5.8523 h -4.52826 -4.52825 z"
           style="fill:#32a9d6;fill-opacity:1;stroke:none;stroke-width:0.52020502px;stroke-linecap:butt;stroke-linejoin:miter;stroke-opacity:1" />
        <path
           transform="scale(0.26458333)"
           id="path8568"
           d="m 649.18919,905.35979 -7.15282,-0.16068 v -26.77588 -26.77587 h 8.23963 c 4.5318,0 12.84207,0.15414 18.46728,0.34253 l 10.22765,0.34254 v 3.559 3.559 H 665.4456 651.92027 v 7.28287 7.28287 h 13.00513 13.00512 v 3.88511 3.88512 l -12.66299,-0.32454 -12.66298,-0.32453 -0.33762,2.81193 c -0.18569,1.54657 -0.33965,5.09433 -0.34214,7.88393 l -0.005,5.072 h 13.52533 13.52533 v 4.42175 4.42174 l -11.31446,-0.11411 c -6.22295,-0.0628 -14.53323,-0.1864 -18.46728,-0.27478 z"
           style="fill:#32a9d6;fill-opacity:1;stroke:none;stroke-width:0.52020502px;stroke-linecap:butt;stroke-linejoin:miter;stroke-opacity:1" />
        <path
           transform="scale(0.26458333)"
           id="path8570"
           d="m 174.89227,903.99262 c -4.03952,-1.74768 -5.96709,-3.69483 -6.95676,-7.02744 -2.00902,-6.7651 -2.48524,-30.87827 -0.70807,-35.8525 1.88879,-5.28661 4.95011,-7.88338 10.49144,-8.89938 3.91779,-0.71832 22.29317,-0.73521 24.85815,-0.0228 4.60232,1.27819 7.60042,6.09026 8.07087,12.95406 l 0.28718,4.18982 h -4.72112 c -5.22426,0 -4.9182,0.22042 -5.57668,-4.01628 -0.755,-4.8577 -3.87371,-6.16703 -13.26009,-5.567 -10.70863,0.68456 -10.61294,0.5261 -10.83243,17.93768 -0.19886,15.77543 -0.0404,16.52658 3.84932,18.24719 2.12319,0.93919 3.24351,1.04683 9.25121,0.88888 5.74141,-0.15095 7.12691,-0.35035 8.6562,-1.24581 2.1061,-1.2332 3.04827,-3.42547 3.09187,-7.19423 l 0.0294,-2.53807 4.8119,0.37446 c 2.64654,0.20596 4.8817,0.44251 4.96701,0.52567 0.0853,0.0832 -0.0779,2.42869 -0.36266,5.21227 -0.7259,7.09527 -1.94193,9.40217 -6.03491,11.44867 l -3.12123,1.56061 -11.96472,0.13106 c -11.59942,0.12705 -12.05207,0.0933 -14.82584,-1.10681 z"
           style="fill:#0b70b6;fill-opacity:1;stroke:none;stroke-width:0.52020502px;stroke-linecap:butt;stroke-linejoin:miter;stroke-opacity:1" />
        <path
           transform="scale(0.26458333)"
           id="path8572"
           d="m 214.77712,905.37213 c -0.84531,-0.12676 -1.37556,-0.48097 -1.2461,-0.83241 0.12394,-0.33647 4.17869,-12.49194 9.01056,-27.01216 l 8.78521,-26.40041 h 7.37941 7.3794 l 1.13626,2.99118 c 1.73335,4.56299 3.12975,8.57844 10.65174,30.62976 l 6.94359,20.3557 -1.9155,0.31672 c -1.05352,0.17419 -3.32802,0.31929 -5.05444,0.32244 l -3.13895,0.006 -1.83787,-5.59221 -1.83788,-5.5922 h -11.90979 -11.90979 l -1.73664,5.5922 -1.73665,5.59221 -3.74556,-0.0779 c -2.06005,-0.0429 -4.4077,-0.17724 -5.217,-0.29861 z m 33.27154,-17.98488 c 0.77341,-0.77348 -8.35188,-27.14266 -9.20953,-26.6126 -0.25625,0.15837 -2.34551,6.07013 -4.64279,13.13725 -3.91112,12.03173 -4.1185,12.89326 -3.25925,13.54022 0.69418,0.52269 2.83881,0.64936 8.80744,0.52021 4.3394,-0.0939 8.07626,-0.35718 8.30413,-0.58508 z"
           style="fill:#0b70b6;fill-opacity:1;stroke:none;stroke-width:0.52020502px;stroke-linecap:butt;stroke-linejoin:miter;stroke-opacity:1" />
        <path
           transform="scale(0.26458333)"
           id="path8574"
           d="m 270.08979,878.25356 v -27.49511 l 7.67302,0.20527 c 12.41805,0.33222 24.68501,1.13956 26.90888,1.771 2.94985,0.83758 5.70364,3.79966 6.7404,7.25025 1.19732,3.98498 1.61409,11.99265 0.8533,16.39505 -1.62225,9.38734 -5.26727,11.13045 -23.31817,11.15118 l -8.97354,0.0103 v 9.10359 9.10359 h -4.94195 -4.94194 z m 26.73019,0.46923 c 4.95685,-0.63866 5.19417,-0.97201 5.4411,-7.64273 0.39397,-10.6429 -0.2037,-11.16019 -13.31386,-11.52318 l -8.97354,-0.24845 v 9.95489 9.9549 l 6.63261,-0.017 c 3.64794,-0.009 8.2441,-0.22465 10.21369,-0.47841 z"
           style="fill:#0b70b6;fill-opacity:1;stroke:none;stroke-width:0.52020502px;stroke-linecap:butt;stroke-linejoin:miter;stroke-opacity:1" />
        <path
           transform="scale(0.26458333)"
           id="path8576"
           d="m 319.50926,878.43791 v -27.31076 h 18.20718 18.20717 v 4.16164 4.16164 h -13.52533 -13.52533 v 7.28287 7.28287 h 12.81309 12.81309 l -0.32244,1.95077 c -0.17735,1.07292 -0.32502,2.70733 -0.32817,3.63202 l -0.006,1.68125 -12.35487,0.13947 -12.35486,0.13946 -0.14396,7.67303 -0.14396,7.67302 h 13.53924 13.53923 v 4.42175 4.42174 h -18.20717 -18.20718 z"
           style="fill:#0b70b6;fill-opacity:1;stroke:none;stroke-width:0.52020502px;stroke-linecap:butt;stroke-linejoin:miter;stroke-opacity:1" />
        <path
           transform="scale(0.26458333)"
           id="path8578"
           d="m 282.70268,940.55874 c -0.49955,-0.92475 -1.50852,-2.37796 -2.24215,-3.22936 -1.20211,-1.39508 -1.65748,-1.55396 -4.61004,-1.60845 -3.5349,-0.0652 -3.35021,-0.18487 -5.93018,3.84107 -1.35982,2.12194 -3.47196,2.77974 -3.47196,1.0813 0,-1.07958 4.94739,-14.20029 6.45045,-17.10688 0.44449,-0.85955 1.18148,-1.93613 1.63776,-2.39241 1.053,-1.053 4.39671,-1.12638 4.39671,-0.0965 0,0.40321 1.53336,4.7684 3.40747,9.70043 1.87411,4.93203 3.33719,9.45715 3.25128,10.05583 -0.25588,1.78329 -1.86746,1.64661 -2.88934,-0.24504 z m -4.20968,-8.15146 c 0.61338,-0.61338 -0.87064,-6.25263 -1.94173,-7.37853 -0.61053,-0.64177 -0.8695,-0.39045 -1.82618,1.77229 -0.61312,1.38606 -1.24005,3.45419 -1.39318,4.59584 l -0.27841,2.07573 2.46492,-0.27784 c 1.35571,-0.1528 2.69427,-0.50717 2.97458,-0.78749 z"
           style="fill:#0b70b6;fill-opacity:1;stroke:none;stroke-width:0.52020502px;stroke-linecap:butt;stroke-linejoin:miter;stroke-opacity:1" />
        <path
           transform="scale(0.26458333)"
           id="path8580"
           d="m 291.78888,941.84011 c -0.20388,-0.20388 -0.37069,-5.00528 -0.37069,-10.66978 0,-9.87302 0.0444,-10.32287 1.07366,-10.87371 0.79931,-0.42778 1.26725,-0.41394 1.83126,0.0541 0.62631,0.51979 0.73323,2.44171 0.61701,11.09046 l -0.1406,10.46171 -1.31998,0.15393 c -0.72599,0.0847 -1.48679,-0.0129 -1.69066,-0.21675 z"
           style="fill:#0b70b6;fill-opacity:1;stroke:none;stroke-width:0.52020502px;stroke-linecap:butt;stroke-linejoin:miter;stroke-opacity:1" />
        <path
           transform="scale(0.26458333)"
           id="path8582"
           d="m 303.72357,940.9983 c -0.16796,-0.66923 -0.46685,-5.71393 -0.66419,-11.21044 l -0.35879,-9.99365 3.33234,0.0414 c 1.83278,0.0227 5.2886,0.20382 7.67959,0.40239 3.88664,0.32277 4.47916,0.51437 5.5922,1.80836 1.63621,1.9022 1.70651,5.34408 0.14959,7.32339 -1.12072,1.42476 -1.10934,1.65632 0.25803,5.25034 0.43542,1.14445 0.80194,3.32608 0.8145,4.84807 0.021,2.55003 -0.0659,2.75421 -1.10688,2.60103 -1.17071,-0.17227 -1.63758,-1.16618 -2.24349,-4.77615 -0.18545,-1.10489 -0.89626,-2.56796 -1.57958,-3.25128 -1.07217,-1.07217 -1.73941,-1.24239 -4.87004,-1.24239 h -3.62764 l -0.31847,2.99118 c -0.17515,1.64515 -0.49291,3.69185 -0.70613,4.54822 -0.48217,1.93658 -1.92868,2.34239 -2.35104,0.65956 z m 12.00388,-12.13111 c 1.70051,-1.11422 1.59787,-3.57366 -0.19825,-4.75052 -1.35626,-0.88866 -5.80977,-1.65291 -7.5945,-1.30328 -1.32694,0.25995 -1.32694,6.03569 0,6.85472 1.18427,0.73097 6.24928,0.2104 7.79275,-0.80092 z"
           style="fill:#0b70b6;fill-opacity:1;stroke:none;stroke-width:0.52020502px;stroke-linecap:butt;stroke-linejoin:miter;stroke-opacity:1" />
        <path
           transform="scale(0.26458333)"
           id="path8584"
           d="m 342.91037,941.197 c -2.85643,-1.52235 -4.89005,-5.94655 -4.90048,-10.66115 -0.0141,-6.38035 3.20593,-10.24295 9.22698,-11.06823 3.16664,-0.43404 7.5886,1.6121 9.47114,4.38251 2.20102,3.23909 -0.3511,3.65742 -4.10638,0.67309 -2.63451,-2.09364 -4.54127,-2.4393 -6.94737,-1.25943 -5.0931,2.4975 -5.87634,9.86865 -1.55131,14.59958 2.37809,2.60128 7.27035,1.73792 9.25991,-1.63413 1.78522,-3.02572 4.57901,-3.09348 3.82589,-0.0928 -1.21102,4.82508 -9.32459,7.7007 -14.27838,5.06057 z"
           style="fill:#0b70b6;fill-opacity:1;stroke:none;stroke-width:0.52020502px;stroke-linecap:butt;stroke-linejoin:miter;stroke-opacity:1" />
        <path
           transform="scale(0.26458333)"
           id="path8586"
           d="m 370.31433,942.05821 c -2.78406,-0.75331 -5.33726,-3.48549 -6.3062,-6.74826 -1.00518,-3.38482 -1.00919,-5.26432 -0.0184,-8.60081 1.19388,-4.02025 5.60857,-7.42933 9.62081,-7.42933 3.3723,0 7.89049,2.99297 9.18108,6.08177 0.91677,2.19414 0.90448,9.06935 -0.0202,11.28233 -1.79986,4.30767 -7.45812,6.76694 -12.45717,5.4143 z m 5.6519,-3.09955 c 8.01976,-5.49523 4.08784,-18.84802 -4.69657,-15.9495 -4.48885,1.48115 -5.86911,8.83173 -2.54617,13.5597 1.51624,2.15734 3.36232,3.49038 4.8549,3.50568 0.41147,0.004 1.48599,-0.49793 2.38784,-1.11588 z"
           style="fill:#0b70b6;fill-opacity:1;stroke:none;stroke-width:0.52020502px;stroke-linecap:butt;stroke-linejoin:miter;stroke-opacity:1" />
        <path
           transform="scale(0.26458333)"
           id="path8588"
           d="m 390.75338,941.07784 c -0.88763,-1.65855 -0.4443,-20.15452 0.497,-20.73514 1.90952,-1.17787 3.48679,0.44376 8.8165,9.06446 l 4.4959,7.27202 0.32906,-5.1912 c 0.18097,-2.85516 0.35654,-6.28642 0.39015,-7.62502 0.0704,-2.80381 1.25852,-4.49756 2.45714,-3.5028 0.57374,0.47616 0.71436,2.51697 0.67334,9.7718 -0.0565,10.00047 -0.29646,11.67352 -1.71306,11.94634 -1.51157,0.2911 -3.69951,-2.27646 -7.99466,-9.38176 l -4.02586,-6.65986 -0.34458,2.47097 c -0.18952,1.35904 -0.36509,4.26995 -0.39016,6.4687 -0.0251,2.19874 -0.26173,4.56626 -0.52593,5.26115 -0.65851,1.73203 -1.96682,2.1446 -2.66484,0.84034 z"
           style="fill:#0b70b6;fill-opacity:1;stroke:none;stroke-width:0.52020502px;stroke-linecap:butt;stroke-linejoin:miter;stroke-opacity:1" />
        <path
           transform="scale(0.26458333)"
           id="path8590"
           d="m 416.08816,939.82361 c -0.18753,-1.3682 -0.34097,-6.46635 -0.34097,-11.32923 v -8.8416 l 6.11241,0.37268 c 6.65598,0.40582 8.75553,1.08217 10.7622,3.46696 2.28472,2.71524 2.41913,10.80735 0.23813,14.33628 -1.62066,2.62229 -4.62555,3.76023 -10.95149,4.14729 l -5.47931,0.33525 z m 11.06656,-1.69298 c 2.95562,-1.5071 3.89386,-3.26788 3.88422,-7.28947 -0.005,-1.92718 -0.30692,-4.0527 -0.67179,-4.72337 -0.82068,-1.50848 -4.11502,-2.98357 -7.72724,-3.45998 l -2.73108,-0.3602 v 8.37209 8.3721 l 2.73108,-8.3e-4 c 1.57166,-4.7e-4 3.48832,-0.38694 4.51481,-0.91036 z"
           style="fill:#0b70b6;fill-opacity:1;stroke:none;stroke-width:0.52020502px;stroke-linecap:butt;stroke-linejoin:miter;stroke-opacity:1" />
        <path
           transform="scale(0.26458333)"
           id="path8592"
           d="m 475.67572,942.29133 c -1.28506,-0.35845 -1.53859,-0.49448 -1.82491,-0.97918 -0.53563,-0.90675 -0.61779,-2.04403 -0.68649,-9.50193 -0.0709,-7.70137 0.0306,-10.10315 0.46895,-11.09414 0.29599,-0.66913 0.57831,-0.84384 1.36361,-0.84384 1.20844,0 1.5343,0.42977 1.79844,2.37188 0.18826,1.38424 0.20149,18.89969 0.0149,19.8076 l -0.10806,0.52594 z"
           style="fill:#0b70b6;fill-opacity:1;stroke:none;stroke-width:0.13005126px;stroke-linecap:butt;stroke-linejoin:miter;stroke-opacity:1" />
        <path
           transform="scale(0.26458333)"
           id="path8594"
           d="m 457.98656,941.4388 c -0.74775,-0.64318 -0.76808,-0.89478 -0.82497,-10.20853 l -0.0518,-8.4748 -2.75375,-0.0447 c -2.48586,-0.0404 -2.81276,-0.0719 -3.36037,-0.32395 -1.30602,-0.60117 -1.16649,-1.72285 0.26403,-2.12249 1.06725,-0.29815 4.31597,-0.42275 9.2419,-0.35447 5.1792,0.0718 6.36257,0.1845 7.1153,0.67771 0.4209,0.27578 0.42866,1.07598 0.0142,1.46422 -0.56181,0.52628 -0.97448,0.59652 -3.83651,0.65296 l -2.76359,0.0545 -0.005,6.19702 c -0.005,6.44651 -0.14906,10.79822 -0.38449,11.61624 -0.24649,0.85643 -0.51348,1.06224 -1.4559,1.12225 -0.73974,0.0471 -0.88232,0.0167 -1.19926,-0.25595 z"
           style="fill:#0b70b6;fill-opacity:1;stroke:none;stroke-width:0.13005126px;stroke-linecap:butt;stroke-linejoin:miter;stroke-opacity:1" />
        <path
           transform="scale(0.26458333)"
           id="path8596"
           d="m 442.09675,942.24466 c -0.30501,-0.12334 -0.50497,-0.5411 -0.7176,-1.49919 -0.207,-0.9327 -0.31289,-15.57281 -0.12856,-17.77493 0.151,-1.80403 0.42487,-2.70164 0.90223,-2.95712 0.14509,-0.0776 0.59217,-0.14118 0.99353,-0.14118 1.28424,0 1.57422,0.55156 1.7094,3.25129 0.0899,1.79568 -0.14853,11.67112 -0.34855,14.43569 -0.2307,3.1887 -0.55157,4.28816 -1.34866,4.62121 -0.5108,0.21342 -0.66917,0.223 -1.06179,0.0642 z"
           style="fill:#0b70b6;fill-opacity:1;stroke:none;stroke-width:0.13005126px;stroke-linecap:butt;stroke-linejoin:miter;stroke-opacity:1" />
        <path
           transform="scale(0.26458333)"
           id="path8598"
           d="m 492.00832,942.36169 c -1.91065,-0.24806 -3.13811,-0.7973 -4.38175,-1.96066 -1.75567,-1.64234 -3.19263,-3.97101 -3.84015,-6.22315 -0.35738,-1.24299 -0.48868,-3.87989 -0.26289,-5.27955 0.26997,-1.67358 1.02052,-3.55981 1.97363,-4.96003 0.62355,-0.91607 2.15205,-2.46135 3.02187,-3.05505 2.67107,-1.82313 5.75894,-2.23916 8.84047,-1.19106 3.3812,1.15002 5.971,4.09053 7.05466,8.00998 0.45695,1.65272 0.57108,4.33633 0.25606,6.02053 -0.92641,4.9528 -4.42078,8.03022 -9.82093,8.64908 -1.25131,0.1434 -1.67016,0.14191 -2.84097,-0.0101 z m 3.19655,-2.78992 c 1.4663,-0.43545 3.56334,-2.22031 4.56547,-3.88582 1.00476,-1.66989 1.42571,-3.66805 1.18555,-5.62746 -0.26969,-2.20025 -1.48944,-5.01715 -2.6974,-6.22942 -0.81688,-0.81978 -1.55026,-1.03192 -3.54418,-1.02518 -1.80385,0.006 -3.15531,0.29893 -4.3298,0.93816 -1.18254,0.64362 -2.19222,2.28227 -2.71323,4.40343 -0.3867,1.57433 -0.38815,4.09128 -0.003,5.53086 0.75464,2.82199 2.80275,5.3516 4.83534,5.97213 0.56039,0.17108 2.00518,0.13006 2.70143,-0.0767 z"
           style="fill:#0b70b6;fill-opacity:1;stroke:none;stroke-width:0.13005126px;stroke-linecap:butt;stroke-linejoin:miter;stroke-opacity:1" />
        <path
           transform="scale(0.26458333)"
           id="path8600"
           d="m 526.902,942.30194 c -0.0715,-0.021 -0.28536,-0.0722 -0.47518,-0.11387 -0.55676,-0.12218 -1.58362,-1.02386 -2.48688,-2.18372 -1.07772,-1.38388 -1.96134,-2.7153 -4.25525,-6.4117 -2.12274,-3.42057 -4.02072,-6.26921 -4.41445,-6.62553 -0.14824,-0.13415 -0.31306,-0.20044 -0.36627,-0.1473 -0.11001,0.10988 -0.12707,5.79154 -0.0311,10.34924 l 0.0644,3.05621 -0.32513,0.65025 c -0.381,0.76201 -0.92058,1.08502 -1.99831,1.19625 -1.34661,0.13898 -1.38686,-0.10882 -1.47217,-9.06435 -0.0665,-6.97587 0.049,-10.9292 0.34995,-11.98682 0.2233,-0.78463 0.51653,-1.0437 1.26241,-1.11537 0.89945,-0.0864 1.74432,0.38367 2.88527,1.60538 1.17078,1.25366 2.04837,2.51807 5.36522,7.73004 1.54877,2.43369 2.88733,4.5109 2.97459,4.61603 0.26359,0.31761 0.63304,0.23223 0.7204,-0.16649 0.0431,-0.1967 0.10839,-0.44543 0.14508,-0.55272 0.0367,-0.10729 0.11822,-2.48075 0.18117,-5.27435 0.11916,-5.28822 0.21422,-6.49541 0.57061,-7.24644 0.25873,-0.54524 0.65999,-0.74444 1.49957,-0.74444 0.84752,0 1.25999,0.35419 1.51812,1.30363 0.26728,0.98307 0.4526,7.83293 0.36055,13.32714 -0.0968,5.7766 -0.27603,7.24752 -0.92365,7.57921 -0.28073,0.14378 -0.96299,0.27425 -1.14896,0.21972 z"
           style="fill:#0b70b6;fill-opacity:1;stroke:none;stroke-width:0.13005126px;stroke-linecap:butt;stroke-linejoin:miter;stroke-opacity:1" />
        <path
           transform="scale(0.26458333)"
           id="path8602"
           d="m 537.20588,942.21407 c -0.2697,-0.0716 -0.54485,-0.23197 -0.61144,-0.3564 -0.28527,-0.53302 -0.43723,-4.49411 -0.44181,-11.5163 -0.007,-10.04116 0.0756,-10.46913 2.01083,-10.46913 1.6357,0 1.80435,1.00265 1.80464,10.72923 2.5e-4,8.10859 -0.17663,10.65267 -0.79534,11.43924 -0.21593,0.2745 -0.36281,0.32813 -0.8682,0.31696 -0.33457,-0.007 -0.82897,-0.072 -1.09868,-0.1436 z"
           style="fill:#0b70b6;fill-opacity:1;stroke:none;stroke-width:0.13005126px;stroke-linecap:butt;stroke-linejoin:miter;stroke-opacity:1" />
        <path
           transform="scale(0.26458333)"
           id="path8604"
           d="m 548.21425,942.22985 c -0.22347,-0.0648 -0.47237,-0.1974 -0.55311,-0.29468 -0.35144,-0.42345 -0.46004,-3.08241 -0.46557,-11.39872 -0.006,-9.24722 0.019,-9.60333 0.72757,-10.31192 0.3652,-0.3652 0.41798,-0.37775 1.40086,-0.33312 0.93861,0.0426 1.08098,0.0874 1.75699,0.55303 1.40822,0.96987 2.91793,3.13584 7.56352,10.85126 2.55808,4.24846 2.85414,4.68853 2.93109,4.35672 0.0471,-0.20301 0.15325,-2.50519 0.23594,-5.11597 0.25591,-8.07901 0.43282,-9.62036 1.18297,-10.30656 0.32841,-0.30042 0.5067,-0.35765 1.1142,-0.35765 0.6185,0 0.7759,0.0527 1.08694,0.3637 0.52733,0.52733 0.66266,1.37124 0.74464,4.64328 0.091,3.63038 -0.17008,13.15999 -0.40127,14.64926 -0.29022,1.86952 -0.90625,2.58253 -2.23126,2.58253 -0.77742,0 -1.34315,-0.25302 -2.08597,-0.93295 -1.20351,-1.10162 -2.0962,-2.45738 -5.50831,-8.36572 -1.30359,-2.25726 -3.23464,-5.23927 -3.57651,-5.523 -0.18068,-0.14995 -0.24299,-0.14707 -0.40897,0.0189 -0.40317,0.40317 -0.57261,2.14777 -0.70346,7.2431 -0.18457,7.18742 -0.32856,7.83305 -1.74137,7.80804 -0.36444,-0.006 -0.84545,-0.0647 -1.06892,-0.12953 z"
           style="fill:#0b70b6;fill-opacity:1;stroke:none;stroke-width:0.13005126px;stroke-linecap:butt;stroke-linejoin:miter;stroke-opacity:1" />
        <path
           transform="scale(0.26458333)"
           id="path8606"
           d="m 580.48312,942.49851 c -3.63945,-0.55312 -6.02831,-2.6635 -7.41881,-6.55395 -0.66542,-1.86177 -0.89134,-3.23348 -0.89071,-5.40811 6.7e-4,-2.32924 0.28815,-3.63506 1.21684,-5.52718 1.10684,-2.25511 2.57259,-3.74142 4.75175,-4.81839 1.68689,-0.83369 2.5472,-1.03049 4.48677,-1.02638 1.78566,0.004 2.90965,0.2433 4.47711,0.95402 2.4066,1.0912 4.37103,3.10726 4.7655,4.89075 0.19136,0.86516 0.0179,1.31324 -0.60988,1.57555 -0.56017,0.23405 -1.26359,0.15 -2.1275,-0.25423 -0.54718,-0.25603 -0.90793,-0.58385 -2.34359,-2.12965 -0.96975,-1.04415 -2.12496,-1.459 -4.07784,-1.46439 -2.42191,-0.007 -4.37151,0.91905 -5.29161,2.51262 -1.3429,2.32587 -1.84916,7.91402 -0.95477,10.53891 0.78838,2.31375 4.55855,3.98496 7.73292,3.42777 2.08973,-0.3668 3.36575,-1.27351 4.21619,-2.99591 0.61124,-1.23794 0.69691,-1.7713 0.33685,-2.09715 -0.23122,-0.20926 -0.58411,-0.26322 -2.30145,-0.3519 -2.90218,-0.14988 -3.29596,-0.39333 -3.29981,-2.04002 -0.003,-1.46709 0.34664,-1.71421 2.43009,-1.7155 1.46813,-9.1e-4 5.76731,0.22387 6.52604,0.3412 l 0.43969,0.068 -0.0743,4.57522 c -0.0533,3.28382 -0.12842,4.83218 -0.26611,5.48558 -0.33486,1.58905 -0.60172,2.01579 -1.26056,2.01579 -0.50608,0 -0.73573,-0.37978 -0.86505,-1.43056 -0.15162,-1.23186 -0.15768,-1.23105 -2.70507,0.36283 -1.06009,0.66329 -2.73194,1.08057 -4.55179,1.13607 -0.85834,0.0262 -1.91176,-0.006 -2.34092,-0.071 z"
           style="fill:#0b70b6;fill-opacity:1;stroke:none;stroke-width:0.13005126px;stroke-linecap:butt;stroke-linejoin:miter;stroke-opacity:1" />
        <path
           transform="scale(0.26458333)"
           id="path8608"
           d="m 297.55983,817.84943 c -48.17978,-7.84394 -90.70734,-39.3243 -112.1996,-83.054 -10.4246,-21.21064 -14.80197,-40.7037 -14.80197,-65.91536 0,-20.69529 3.05273,-37.5704 9.94133,-54.95436 9.6894,-24.45206 23.01074,-42.42033 46.21306,-62.33376 13.1608,-11.29528 32.56821,-21.4804 51.96039,-27.26913 10.51018,-3.13737 30.18894,-6.25735 39.46721,-6.25735 h 2.49693 l -0.0113,12.32265 c -0.006,6.77747 -0.25449,12.70173 -0.55176,13.16503 -0.29728,0.4633 -4.34766,1.23276 -9.00084,1.70992 -11.31684,1.16047 -21.51573,3.30454 -30.48555,6.40885 -47.60751,16.47615 -80.9602,60.24104 -83.43606,109.4835 -1.19293,23.7262 2.72002,42.63519 13.11172,63.36127 16.94312,33.79278 48.03315,57.58258 86.09627,65.88005 6.78833,1.47981 9.73105,1.68201 24.27747,1.66816 14.40373,-0.0137 17.55574,-0.23235 24.27748,-1.68392 26.25779,-5.67043 46.83106,-17.19331 65.52073,-36.69749 8.50108,-8.87156 14.72913,-17.45959 20.41876,-28.15598 8.55451,-16.0823 11.58888,-27.99285 13.73858,-53.92694 1.71006,-20.63023 3.63667,-27.80254 10.58139,-39.39204 10.69116,-17.84164 29.91602,-30.64993 50.85467,-33.8812 3.03469,-0.46832 6.42802,-0.99903 7.54073,-1.17935 l 2.02313,-0.32786 v 13.95955 13.95954 l -3.86233,0.009 c -9.27415,0.021 -18.18412,4.30541 -26.68473,12.83161 -9.7577,9.78708 -14.16356,21.08294 -13.3563,34.24324 0.67963,11.07962 4.83125,19.92217 13.31223,28.35372 10.7245,10.66199 25.7353,15.44415 39.39342,12.55 18.7412,-3.97126 32.13239,-17.85311 35.88921,-37.20423 l 1.28856,-6.63729 13.15981,-0.002 13.15981,-0.002 -0.50374,5.559 c -1.59579,17.61011 -9.58793,34.08965 -22.29935,45.98056 -9.02323,8.4408 -18.99017,13.92224 -31.71041,17.43954 -6.1694,1.70592 -8.49243,1.96682 -17.41834,1.95626 -8.36091,-0.01 -11.47656,-0.32699 -16.55282,-1.68469 -11.30834,-3.02454 -23.65296,-9.68103 -32.1803,-17.35232 -4.42462,-3.98044 -3.70444,-4.5367 -6.85979,5.29836 -1.99568,6.22045 -2.9249,4.81774 8.14148,12.28997 17.34485,11.71156 33.20458,15.7687 55.97356,14.31882 18.1716,-1.15712 37.71727,-10.33445 51.45589,-24.1602 16.29095,-16.39427 23.9392,-35.27921 25.42213,-62.77195 l 0.50594,-9.37993 H 581.47432 561.0821 l 1.3488,-1.74112 c 2.11315,-2.72779 48.13062,-53.6929 49.41,-54.72239 0.62855,-0.50579 1.37456,-0.91961 1.65782,-0.91961 0.28326,0 5.09528,5.04862 10.69339,11.21914 5.59811,6.17052 17.22112,18.89819 25.82889,28.28372 8.60779,9.38498 15.65052,17.24757 15.65052,17.47189 0,0.2243 -8.60747,0.40783 -19.12771,0.40783 h -19.1277 l -0.004,10.11562 c -0.0142,33.04158 -12.37141,62.19746 -35.44766,83.63574 -14.55234,13.51942 -33.91127,23.50821 -53.79463,27.75687 -10.82212,2.31247 -32.8465,2.31554 -43.65249,0.006 -15.59839,-3.33367 -31.27677,-10.10458 -42.99852,-18.56945 -3.34786,-2.41766 -6.40959,-4.28823 -6.80383,-4.15681 -0.39425,0.13142 -2.23566,2.16379 -4.09203,4.51639 l -3.37522,4.27745 3.24627,2.88082 c 6.65455,5.9054 23.632,15.007 36.06617,19.33504 14.36791,5.00115 20.21583,5.84543 40.50414,5.8477 17.79452,0.002 18.13198,-0.0268 26.48451,-2.25688 25.37056,-6.77392 44.32085,-17.32547 60.66058,-33.77593 20.45655,-20.59517 32.62816,-47.28944 35.79212,-78.49778 l 0.8728,-8.60809 h 12.76665 12.76665 l -0.003,7.54073 c -0.009,24.23307 -11.38733,57.31836 -27.18905,79.06237 -22.60085,31.09998 -52.91525,51.39185 -89.78127,60.09783 -18.44249,4.35524 -47.78617,4.53242 -65.47561,0.39538 -21.38973,-5.00244 -43.49927,-15.5295 -61.22948,-29.15332 l -4.21419,-3.23818 -6.45318,4.72194 c -3.54924,2.59706 -8.77057,6.21085 -11.60294,8.03065 -14.86655,9.55175 -37.01581,17.98788 -54.80824,20.87515 -10.07946,1.63565 -39.55773,2.026 -48.09051,0.63681 z"
           style="fill:#0b70b6;fill-opacity:1;stroke:none;stroke-width:0.735681px;stroke-linecap:butt;stroke-linejoin:miter;stroke-opacity:1" />
      </g>
    </g>
  </g>
</svg>
