<?xml version="1.0" encoding="UTF-8" standalone="no"?>
<svg
   xmlns:dc="http://purl.org/dc/elements/1.1/"
   xmlns:cc="http://creativecommons.org/ns#"
   xmlns:rdf="http://www.w3.org/1999/02/22-rdf-syntax-ns#"
   xmlns:svg="http://www.w3.org/2000/svg"
   xmlns="http://www.w3.org/2000/svg"
   xmlns:xlink="http://www.w3.org/1999/xlink"
   viewBox="0 0 598 550"
   height="550"
   width="598"
   id="svg3864"
   version="1.1">
  <metadata
     id="metadata3870">
    <rdf:RDF>
      <cc:Work
         rdf:about="">
        <dc:format>image/svg+xml</dc:format>
        <dc:type
           rdf:resource="http://purl.org/dc/dcmitype/StillImage" />
        <dc:title></dc:title>
      </cc:Work>
    </rdf:RDF>
  </metadata>
  <defs
     id="defs3868">
    <clipPath
       id="clipPath4821"
       clipPathUnits="userSpaceOnUse">
      <use
         height="100%"
         width="100%"
         id="use4823"
         xlink:href="#g4817"
         y="0"
         x="0" />
    </clipPath>
  </defs>
  <g
     transform="matrix(0.7675506,0,0,0.73041141,962.05286,160.85926)"
     clip-path="url(#clipPath4821)"
     id="g4819">
    <g
       id="g4817">
      <path
         id="path4829"
         d="m -1025.9845,338.35865 -10.7358,-1.14831 -14.6938,-3.15471 -14.6939,-3.15471 -12.5037,-4.32318 -12.5036,-4.32317 -10.8059,-4.93827 -10.8058,-4.93827 -12.6118,-7.73922 -12.6119,-7.73922 -11.4951,-9.68528 -11.4952,-9.68531 -8.4207,-9.03403 -8.4207,-9.03404 -7.6914,-11.26343 -7.6914,-11.2634 -2.4589,-4.9206 -2.4588,-4.9206 -3.4403,-7.35939 -3.4404,-7.35936 -3.4889,-11.70794 -3.4889,-11.70795 -1.5295,-9.02624 -1.5296,-9.02623 -0.027,-16.85676 -0.027,-16.85679 1.6053,-9.17624 1.6053,-9.17624 2.8592,-9.80357 2.8592,-9.80361 2.9538,-7.41849 2.9537,-7.4185 7.0716,-12.3015 7.0715,-12.301468 8.1064,-10.45626 8.1065,-10.45627 17.1859,-14.84267 17.186,-14.84265 11.9914,-7.18741 11.9915,-7.18745 14.7546,-6.44265 14.7546,-6.44262 13.4063,-3.83827 13.4064,-3.83824 14.4462,-2.40659 14.4463,-2.40659 13.753,-0.83079 13.753,-0.83081 v 16.78859 16.78859 l -1.7893,0.0317 -1.7894,0.0318 -13.917,1.16352 -13.9172,1.16356 -11.8489,2.59921 -11.8489,2.59918 -10.7359,3.56804 -10.7359,3.56804 -11.8219,5.92994 -11.8219,5.92991 -12.1635,8.31074 -12.1635,8.31072 -8.4455,8.43277 -8.4455,8.43277 -5.7268,7.247158 -5.7268,7.24715 -6.4306,11.00025 -6.4305,11.00025 -3.7352,10.24514 -3.7352,10.24517 -2.1293,11.28246 -2.1294,11.28246 v 13.53161 13.53164 l 2.2342,11.07136 2.2341,11.07134 4.2943,11.07133 4.2943,11.07134 5.4384,9.33966 5.4383,9.33966 7.6347,9.72311 7.6348,9.72313 13.1515,11.21051 13.1514,11.21054 11.9752,6.80377 11.9752,6.8038 8.5887,3.6848 8.5887,3.68478 12.4896,3.78563 12.4894,3.78563 11.8451,1.82993 11.8451,1.82996 12.1673,0.77431 12.1673,0.7743 14.3145,-1.28378 14.3144,-1.28378 14.0861,-3.14522 14.0861,-3.14518 14.5429,-5.89607 14.5429,-5.89607 10.0201,-5.68295 10.0202,-5.68298 10.9882,-8.71267 10.9882,-8.71264 7.4435,-8.03891 7.4435,-8.03893 6.8513,-9.7965 6.8514,-9.7965 4.4224,-9.12906 4.4223,-9.12909 3.6148,-11.45853 3.6147,-11.45853 1.3958,-20.35738 1.3957,-20.35738 2.1891,-7.32099 2.1891,-7.32098 4.7587,-8.61104 4.7586,-8.61103 6.8328,-7.76123 6.8327,-7.76125 8.7403,-6.07757 8.7403,-6.0776 9.3902,-4.24048 9.3901,-4.24047 10.6714,-2.45568 10.6713,-2.45568 8.2309,-0.82683 8.2308,-0.826863 V 82.23777 99.43073 l -8.5865,0.66912 -8.5865,0.66909 -9.3188,3.74758 -9.3188,3.74751 -7.6863,6.24709 -7.6862,6.24709 -5.5425,9.3839 -5.5424,9.38389 v 14.25989 14.25983 l 4.5827,8.31401 4.5827,8.31398 7.2651,6.60151 7.2651,6.60152 8.529,3.90661 8.5289,3.90661 10.233,1.8336 10.2329,1.83356 6.608,-0.76408 6.6079,-0.76406 6.8623,-1.86377 6.8623,-1.86374 6.0208,-2.92404 6.0207,-2.92401 4.4737,-3.41743 4.4737,-3.41744 4.9268,-5.6427 4.9268,-5.6427 3.0299,-7.27387 3.03,-7.27386 0.8982,-5.8432 0.8981,-5.8432 h 19.2368 19.2369 l -0.011,3.3829 -0.011,3.38293 -1.5007,7.99597 -1.5006,7.99596 -4.8048,10.14914 -4.8047,10.14911 -6.3939,7.68803 -6.3938,7.68803 -7.6881,6.22748 -7.6881,6.22751 -10.0201,5.0682 -10.0202,5.06817 -9.3044,2.66196 -9.3044,2.66195 -12.6364,1.37234 -12.6365,1.37237 -14.3443,-2.10354 -14.3443,-2.10354 -12.1111,-4.87731 -12.111,-4.87729 -5.9988,-3.95065 -5.9989,-3.95064 -4.3214,-3.44166 -4.3214,-3.44169 -3.3516,8.03108 -3.3516,8.03108 0.5158,0.39793 0.5157,0.39791 9.3388,6.03882 9.3387,6.03882 10.8875,4.50136 10.8875,4.50138 11.5041,2.5242 11.5055,2.52419 h 17.4161 17.4161 l 11.558,-2.536 11.558,-2.53604 9.0834,-3.53942 9.0833,-3.5394 10.1621,-5.85923 10.162,-5.8592 9.6748,-9.02309 9.6747,-9.02306 6.6679,-10.10355 6.6679,-10.10351 3.5401,-9.56742 3.54,-9.56739 1.4306,-10.73005 1.4307,-10.73008 0.011,-7.68843 0.011,-7.68843 h -28.6289 -28.629 v -0.74754 -0.74751 l 18.9053,-18.01226 18.9054,-18.01223 11.5118,-11.07136 11.5117,-11.07134 1.4326,-1.33587 1.4327,-1.33584 5.51146,-5.26261 5.5116,-5.26258 1.7598,1.67785 1.7598,1.67786 15.5209,14.76179 15.5208,14.7618 7.2683,6.76843 7.2681,6.7684 14.0996,13.22151 14.1001,13.2215 h -28.0562 -28.0561 v 11.84717 11.84714 l -2.2941,12.40042 -2.2941,12.40039 -4.311,10.50417 -4.311,10.50414 -4.283,7.29737 -4.2829,7.29734 -3.7379,5.00413 -3.73776,5.00413 -8.846,9.22613 -8.846,9.22611 -9.4847,6.76583 -9.4847,6.76583 -12.2445,6.40546 -12.2445,6.40546 -11.2111,3.71547 -11.2111,3.71547 -13.371,2.6476 -13.3709,2.64763 -20.756,-0.003 -20.756,-0.003 -13.5988,-2.75637 -13.5987,-2.75637 -12.1673,-4.27741 -12.1674,-4.27741 -8.5886,-4.39348 -8.5887,-4.39346 -6.1622,-4.24472 -6.1621,-4.24472 -0.3611,0.44514 -0.3612,0.44515 -4.8601,5.41191 -4.8601,5.41192 4.9419,3.60231 4.9418,3.60231 12.8831,6.51703 12.883,6.517 12.883,4.3323 12.8831,4.33232 14.3145,2.78375 14.3144,2.78374 22.9032,-0.0136 22.9032,-0.0136 15.0933,-3.17412 15.0933,-3.17411 9.9571,-3.22003 9.957,-3.22002 10.4766,-4.85546 10.4766,-4.85549 10.9488,-7.0786 10.9487,-7.07862 11.1958,-9.84117 11.19576,-9.8412 7.6594,-9.8412 7.6593,-9.8412 4.5296,-7.78501 4.5296,-7.78502 4.9481,-12.70778 4.9482,-12.70781 2.1233,-12.10614 2.1234,-12.10614 0.01,-5.22813 0.01,-5.22813 h 19.3246 19.3246 v 7.54164 7.54163 l -2.2655,12.4483 -2.2655,12.44829 -3.5043,10.8318 -3.5044,10.83177 -5.5196,11.00235 -5.5196,11.00233 -6.0215,9.04434 -6.0216,9.04432 -9.1452,10.43698 -9.1452,10.43695 -13.2665,10.99701 -13.2665,10.99699 -12.07596,7.28836 -12.0759,7.28835 -14.7689,6.41978 -14.7689,6.41975 -13.2357,3.77166 -13.2358,3.77162 -14.3145,2.68329 -14.3144,2.6833 -27.9133,-0.0234 -27.9132,-0.0234 -14.1901,-2.65456 -14.19,-2.65456 -13.0075,-3.82106 -13.0075,-3.82106 -14.1318,-6.05121 -14.1318,-6.05118 -6.6242,-3.86576 -6.6242,-3.86571 -7.9085,-5.17469 -7.9086,-5.17466 -13.5444,8.59847 -13.5444,8.59847 -17.1962,7.20959 -17.1961,7.20959 -11.3591,3.14117 -11.3591,3.1412 -14.407,2.53823 -14.407,2.53826 -21.4717,0.44165 -21.4717,0.44166 -10.7359,-1.14828 z"
         style="fill:#0a6fba;fill-opacity:1;stroke-width:1.32698727" />
      <path
         id="path4827"
         d="m -1029.3626,289.70825 -11.2511,-1.74669 -10.9363,-3.22369 -10.9364,-3.22369 -8.5621,-3.69171 -8.5622,-3.69173 -9.3309,-5.28404 -9.331,-5.28403 -8.9296,-6.94603 -8.9295,-6.94603 -9.3692,-10.05871 -9.3692,-10.0587 -6.9632,-11.68644 -6.9633,-11.6864 -3.0889,-8.61103 -3.0889,-8.61107 -2.0816,-8.44189 -2.0815,-8.44189 -0.052,-16.77618 -0.052,-16.77614 2.2432,-9.22613 2.2433,-9.2261 3.0113,-7.99597 3.0113,-7.996 5.6283,-9.70332 5.6284,-9.70339 5.891,-7.51871 5.891,-7.51874 11.5635,-10.261138 11.5635,-10.26117 12.6982,-7.314 12.6981,-7.314 9.4893,-3.826 9.4893,-3.82596 14.3144,-3.60691 14.3144,-3.6069 14.6724,-0.69424 14.6723,-0.69421 v 15.94709 15.9471 l -12.7662,1.46069 -12.7662,1.46069 -9.7791,2.59248 -9.7791,2.59249 -8.5886,3.69427 -8.5887,3.694275 -8.6895,5.295183 -8.6895,5.29514 -8.0808,7.50085 -8.0809,7.50084 -4.418,5.5184 -4.4181,5.51843 -4.9089,8.91135 -4.909,8.91138 -2.7839,9.84117 -2.7839,9.8412 -0.9571,9.23678 -0.9571,9.23676 2.3313,11.67578 2.3314,11.67574 3.0032,7.3809 3.0033,7.3809 2.8757,4.9206 2.8756,4.9206 5.7907,7.3809 5.7907,7.38087 8.7444,7.55004 8.7445,7.55005 10.3641,5.76171 10.3643,5.76172 10.0826,3.5731 10.0828,3.57309 10.5624,1.87494 10.5625,1.87492 h 14.4351 14.4352 l 10.4141,-1.84861 10.414,-1.84858 9.1309,-3.07514 9.1309,-3.07517 9.8364,-5.02189 9.8363,-5.02188 11.0916,-9.42923 11.0916,-9.4292 5.5011,-7.3809 5.5012,-7.3809 3.9964,-7.38087 3.9964,-7.3809 2.955,-9.9053 2.955,-9.90527 1.3209,-20.23337 1.3208,-20.23339 2.9259,-9.64527 2.926,-9.64529 6.051,-11.85707 6.0511,-11.85711 6.8105,-8.75058 6.8105,-8.75061 9.4924,-8.810838 9.4924,-8.81084 11.6683,-7.47251 11.6683,-7.47252 14.3145,-6.05268 14.3145,-6.05265 13.5987,-3.20238 13.5988,-3.20239 21.1139,-0.64018 21.1138,-0.64016 0.1157,-4.46085 0.1156,-4.46081 -0.048,-19.98993 -0.048,-19.98994 h 1.1453 1.1454 l 17.0959,13.22411 17.096,13.2241 23.9189,18.28381 23.919,18.28378 v 0.89341 0.89339 l -5.3679,4.14002 -5.368,4.14003 -15.7459,12.23448 -15.746,12.234488 -13.5987,10.64481 -13.5988,10.64484 -6.7993,5.31888 -6.7994,5.31886 V 74.096 50.566492 h -16.5811 -16.581 l -11.558,2.53604 -11.558,2.53603 -8.9172,3.47464 -8.9171,3.474655 -9.1081,5.277973 -9.108,5.27797 -9.0546,7.88379 -9.0545,7.88382 -6.3481,8.43312 -6.3481,8.43311 -3.0221,5.916 -3.0222,5.91599 -2.7392,7.38087 -2.7392,7.3809 -1.3671,19.06733 -1.3672,19.0673 -1.5954,9.22613 -1.5954,9.2261 -4.2666,11.07137 -4.2666,11.07133 -5.817,9.2261 -5.817,9.22614 -7.5278,8.62316 -7.5277,8.62319 -8.3628,6.82196 -8.3628,6.82196 -7.8729,4.96484 -7.873,4.96486 -10.7359,5.05198 -10.7358,5.052 -15.0303,4.28772 -15.0302,4.28774 -11.1973,1.31156 -11.1973,1.31156 -16.0002,-0.11035 -16.0002,-0.11036 -11.2511,-1.74669 z"
         style="fill:#28abdd;fill-opacity:1;stroke-width:1.32698727" />
      <path
         id="path3946"
         d="m -1009.5228,241.65801 -4.2944,-0.4431 -10.0201,-1.96384 -10.0202,-1.96388 -12.883,-5.62081 -12.8829,-5.62082 -12.1957,-10.54768 -12.1956,-10.54768 -6.0593,-10.45627 -6.0593,-10.45627 -2.5011,-7.99596 -2.5011,-7.99597 0.099,-15.37687 0.099,-15.37686 4.3879,-10.77761 4.388,-10.7776 4.8172,-7.03669 4.8172,-7.0367 11.4516,-9.90458 11.4516,-9.9046 11.4908,-5.10739 11.4906,-5.10738 10.6679,-2.54051 10.6679,-2.54051 h 8.1171 8.1169 l 0.1961,15.87306 0.196,15.87303 -9.9341,1.43999 -9.9342,1.43996 -8.7899,3.5724 -8.7899,3.5724 -7.6664,6.58826 -7.6663,6.58829 -3.5637,6.04785 -3.5638,6.04789 -2.3068,6.68155 -2.3068,6.68155 v 5.75958 5.75959 l 1.4515,6.62617 1.4514,6.62619 3.4911,6.15074 3.491,6.15073 7.1042,6.8468 7.1043,6.84676 8.4988,3.89281 8.4988,3.89279 9.8727,1.98088 9.8726,1.98085 8.4262,-0.80656 8.4262,-0.80656 8.0355,-2.56144 8.0354,-2.56145 5.7586,-3.37611 5.7586,-3.37609 5.9491,-5.5465 5.9492,-5.54649 3.0897,-5.20466 3.0897,-5.20463 2.0066,-5.68145 2.0066,-5.68148 0.015,-9.25838 0.015,-9.25839 1.5071,-10.42398 1.5071,-10.42402 2.057,-8.61103 2.057,-8.61107 3.7361,-9.84117 3.7361,-9.8412 6.7847,-12.37221 6.7847,-12.372178 7.5865,-9.77049 7.5865,-9.77048 7.2777,-7.3809 7.2777,-7.3809 10.5604,-8.61104 10.5606,-8.61103 10.2333,-6.55786 10.2332,-6.55788 9.2469,-4.45617 9.247,-4.45619 12.9405,-4.81154 12.9405,-4.81155 10.8816,-2.81475 10.8816,-2.81472 13.4531,-1.88858 13.453,-1.88857 11.8094,-0.8192 11.8095,-0.81924 v 16.62462 16.62464 l -12.5252,0.84496 -12.5252,0.84496 -12.6733,2.37209 -12.6733,2.37212 -12.7736,4.23944 -12.7737,4.23944 -10.3392,5.13253 c 0,0 -6.98409,3.249074 -10.3393,5.13254 -3.2311,1.813793 -9.4048,5.92607 -9.4048,5.92607 l -9.4049,5.92606 -12.1301,10.81358 -12.1302,10.81355 -6.1897,7.832978 -6.1897,7.83297 -6.9276,11.95741 -6.9277,11.95742 -3.5482,10.52218 -3.5482,10.52219 -1.5662,7.42245 -1.5662,7.42244 -1.3122,18.23459 -1.3122,18.23455 -2.3809,6.75654 -2.3809,6.75653 -5.7334,9.85047 -5.7334,9.85047 -13.0748,11.0735 -13.0748,11.0735 -12.671,5.34764 -12.6709,5.34767 -13.0951,2.32246 -13.0951,2.32245 -6.4415,-0.16816 -6.4415,-0.16813 -4.2943,-0.44312 z"
         style="fill:#28abdd;fill-opacity:1;stroke-width:1.32698727" />
      <path
         transform="translate(-49.523305,-6.9915254)"
         id="path4899"
         d="m -960.96711,248.32482 c -2.08289,-0.26836 -8.11308,-1.32511 -13.40043,-2.34834 -9.09726,-1.76053 -10.31007,-2.16397 -22.59159,-7.5151 l -12.97827,-5.65469 -12.307,-10.71282 -12.3071,-10.71282 -5.7426,-9.90466 c -4.8262,-8.3242 -6.1604,-11.20362 -8.3614,-18.04517 l -2.6188,-8.1405 V 159.99761 144.7045 l 4.4439,-10.94139 c 3.7639,-9.26732 5.1859,-12.01845 9.2939,-17.98097 4.553,-6.60832 5.5504,-7.64344 16.28,-16.89619 l 11.43,-9.856594 11.31637,-5.041065 c 10.00585,-4.457255 12.61575,-5.352048 22.53617,-7.72641 10.28476,-2.461571 11.83212,-2.684804 18.56769,-2.678751 l 7.34792,0.0066 0.42643,15.482185 c 0.23453,8.515206 0.29504,15.613575 0.13446,15.774155 -0.16058,0.16058 -4.64847,0.92515 -9.97311,1.69906 -8.92981,1.2979 -10.36761,1.68505 -18.52638,4.98852 -8.84046,3.57948 -8.84938,3.58499 -16.54863,10.22145 -7.20572,6.21106 -7.93572,7.03751 -11.29932,12.79212 -2.258,3.8631 -4.4415,8.66906 -5.8686,12.91693 -2.0183,6.00763 -2.2727,7.39506 -2.2727,12.39449 0,9.08145 2.1476,17.40462 6.4864,25.13875 3.1011,5.52793 4.3249,7.03364 10.6785,13.13859 l 7.176,6.89515 8.65848,3.90781 c 7.76171,3.50308 9.68432,4.11098 18.56314,5.86942 l 9.90466,1.9616 8.15678,-0.7997 c 6.65977,-0.65293 9.69053,-1.28779 16.51372,-3.45914 10.83531,-3.44813 17.75366,-7.47037 25.76434,-14.97903 6.81467,-6.38759 10.73203,-12.46113 14.11853,-21.88961 l 2.15744,-6.00658 v -9.8069 c 0,-11.55947 1.68527,-24.55255 4.9216,-37.94432 5.03675,-20.84187 16.4254,-44.052866 30.55717,-62.277978 10.36621,-13.368845 18.59519,-21.74531 32.26248,-32.840679 20.48475,-16.629929 37.45852,-26.30234095 62.76722,-35.7675654 21.86853,-8.1786326 43.95172,-12.8759406 69.04132,-14.6857576 4.48622,-0.323611 9.9265,-0.738932 12.08951,-0.922936 l 3.93273,-0.334552 V -8.6316653 7.6814739 l -2.47616,0.3206104 c -1.3619,0.1763362 -6.93327,0.5953005 -12.38083,0.9310329 -23.93478,1.4750958 -51.13016,8.8030918 -72.53708,19.5456438 -17.17565,8.619198 -25.92516,14.551712 -40.20043,27.25751 -15.51933,13.813081 -21.25396,20.818514 -31.54728,38.538174 -6.47016,11.138215 -7.35416,13.024485 -10.47143,22.343825 -5.22168,15.61067 -6.63524,23.34591 -8.09182,44.27988 l -1.23049,17.68447 -2.37749,6.78587 c -1.72,4.90925 -3.98273,9.52498 -8.18204,16.69053 l -5.80456,9.90466 -12.6771,10.71015 c -6.97241,5.89058 -13.0683,10.92907 -13.54642,11.19664 -0.47813,0.26758 -6.21701,2.74936 -12.75307,5.51508 -11.77846,4.98403 -11.99475,5.04871 -24.41024,7.30029 -10.84751,1.96723 -13.58072,2.26201 -20.39195,2.19931 -4.32601,-0.0399 -9.56965,-0.29197 -11.65254,-0.56033 z"
         style="fill:#2ea9e2;fill-opacity:1;stroke-width:0.58262712" />
      <path
         transform="translate(-49.523305,-6.9915254)"
         id="path4901"
         d="m -957.50763,248.58478 c -0.0532,-0.0464 -1.66981,-0.24077 -3.59248,-0.43188 -1.92267,-0.19112 -4.15122,-0.50155 -4.95233,-0.68986 -1.38138,-0.32469 -2.36531,-0.52046 -5.3893,-1.07225 -5.28082,-0.96361 -8.67998,-1.6963 -11.01926,-2.3752 -1.49425,-0.43365 -2.83335,-0.67194 -2.97577,-0.52952 -0.14242,0.14242 -0.59059,-0.14066 -0.99593,-0.62907 -0.40535,-0.48842 -1.25435,-0.88803 -1.88667,-0.88803 -0.63233,0 -1.84559,-0.38247 -2.69614,-0.84993 -0.85056,-0.46747 -2.85738,-1.40007 -4.4596,-2.07244 -3.7944,-1.59232 -7.61849,-3.35301 -10.34159,-4.76151 -1.2017,-0.62155 -2.1849,-0.96436 -2.1849,-0.76181 0,0.46625 -3.0839,-1.71935 -5.4648,-3.87295 -0.9999,-0.90448 -2.775,-2.46175 -3.9446,-3.4606 -1.1696,-0.99886 -3.0967,-2.70751 -4.2823,-3.79703 -1.1857,-1.08951 -2.2773,-1.98093 -2.426,-1.98093 -0.2828,0 -2.6951,-2.13598 -5.3406,-4.72902 -0.8555,-0.83852 -2.3122,-2.00638 -3.2372,-2.59526 -0.9249,-0.58887 -2.0475,-1.86918 -2.4947,-2.84513 -0.4472,-0.97594 -1.3296,-2.56099 -1.9609,-3.52233 -0.6314,-0.96133 -1.5701,-2.66552 -2.0861,-3.78707 -0.5161,-1.12156 -1.1305,-2.17029 -1.3655,-2.33051 -0.4981,-0.33966 -1.877,-2.8675 -3.2576,-5.97193 -0.5345,-1.20167 -1.2209,-2.18485 -1.5255,-2.18485 -0.3045,0 -0.4265,-0.20585 -0.271,-0.45746 0.1555,-0.2516 -0.4922,-2.28351 -1.4393,-4.51536 -0.9472,-2.23184 -1.826,-4.58227 -1.953,-5.22316 -0.1269,-0.64089 -0.2831,-1.23079 -0.347,-1.31091 -0.064,-0.0801 -0.1552,-0.34229 -0.2029,-0.58262 -0.048,-0.24034 -0.4203,-1.61679 -0.8279,-3.0588 -0.5395,-1.90892 -0.6888,-6.81998 -0.5491,-18.06144 0.2026,-16.30283 0.2213,-16.47861 2.1869,-20.46927 0.6893,-1.39947 1.3488,-2.99355 1.4655,-3.5424 0.2628,-1.23528 1.5894,-4.23467 4.1066,-9.28479 1.062,-2.13059 1.7733,-4.03141 1.5807,-4.22405 -0.1927,-0.19264 -0.044,-0.35025 0.3295,-0.35025 0.3738,0 0.6797,-0.39327 0.6797,-0.87394 0,-0.48067 0.2622,-0.87394 0.5826,-0.87394 0.3205,0 0.5826,-0.34608 0.5826,-0.76907 0,-0.42299 0.9177,-1.84112 2.0392,-3.15141 1.1216,-1.31029 2.0392,-2.65536 2.0392,-2.98905 0,-0.3337 0.4588,-0.87396 1.0196,-1.20058 0.5608,-0.32663 0.8532,-0.60184 0.6498,-0.61158 -0.3601,-0.0173 3.7167,-4.0582 8.247,-8.1745 1.2343,-1.12155 3.2484,-2.95683 4.4758,-4.078387 1.2274,-1.121557 3.4977,-3.087924 5.0452,-4.369703 1.5475,-1.28178 3.4304,-2.895162 4.1841,-3.585289 1.3092,-1.198744 2.9965,-2.075784 10.1709,-5.286648 1.76245,-0.788778 3.92545,-1.817465 4.80668,-2.285973 0.88122,-0.468502 1.60222,-0.710391 1.60222,-0.537526 0,0.172866 0.85209,-0.158177 1.89354,-0.735642 1.04145,-0.577471 3.1389,-1.393609 4.66102,-1.813648 1.52211,-0.42004 2.76748,-0.934628 2.76748,-1.143534 0,-0.208913 0.63572,-0.432449 1.41271,-0.496754 0.777,-0.06431 3.68741,-0.7761 6.46759,-1.581763 2.78017,-0.805662 5.27251,-1.330318 5.53854,-1.165907 0.26603,0.164418 0.65101,0.0282 0.85552,-0.302698 0.20451,-0.330897 0.59848,-0.461557 0.8755,-0.290352 0.27701,0.171205 1.50426,-0.02115 2.72722,-0.427468 1.34867,-0.448081 5.27216,-0.738747 9.97175,-0.738747 h 7.74821 l 0.25552,9.322034 c 0.14054,5.127118 0.40402,12.140492 0.58553,15.585275 0.25901,4.91565 0.16658,6.27343 -0.42957,6.31057 -1.25388,0.0781 -3.53372,0.36661 -6.00323,0.7596 -1.28178,0.20398 -3.11705,0.4811 -4.07839,0.61582 -5.96317,0.83571 -10.13544,1.83873 -13.31126,3.20005 -1.49104,0.63913 -2.71098,1.03424 -2.71098,0.87802 0,-0.15622 -0.65546,0.14543 -1.45657,0.67034 -0.80111,0.52491 -1.45657,0.77831 -1.45657,0.56312 0,-0.21519 -0.721,-0.0266 -1.60222,0.41912 -5.57878,2.82166 -7.9968,4.18299 -8.90393,5.01287 -0.56684,0.51856 -1.98645,1.72939 -3.1547,2.69072 -4.18419,3.44313 -11.38631,10.6841 -11.96501,12.02952 -0.3242,0.754 -0.8384,1.76418 -1.1424,2.24485 -2.2718,3.59114 -4.076,7.52209 -5.9989,13.07022 -2.8817,8.31455 -3.1126,12.41425 -1.3146,23.34397 0.7432,4.51835 3.7579,12.44774 5.3874,14.17033 0.4005,0.42344 0.7283,1.10433 0.7283,1.51307 0,0.40875 0.5243,1.34778 1.1652,2.08673 0.6409,0.73895 1.1653,1.51171 1.1653,1.71723 0,0.43513 6.91528,7.54267 12.12722,12.46436 1.98202,1.87165 3.60368,3.23327 3.60368,3.02585 0,-0.20742 0.721,0.0154 1.60222,0.49525 3.02584,1.6475 13.53853,6.1381 16.01776,6.84213 3.33816,0.94794 3.31928,0.94356 5.97642,1.38455 1.28178,0.21272 4.16578,0.79738 6.4089,1.29924 2.24311,0.50185 5.52039,0.9152 7.28284,0.91854 5.99303,0.0114 15.70555,-1.35498 19.73337,-2.77608 1.32355,-0.46697 2.40646,-0.69748 2.40646,-0.51224 0,0.18525 0.33844,0.0559 0.7521,-0.28738 0.41366,-0.3433 1.56696,-0.76775 2.56289,-0.94321 1.99297,-0.35111 7.61175,-2.8566 12.09337,-5.39261 3.55526,-2.01181 3.46921,-1.95212 7.02278,-4.87129 6.01332,-4.93981 7.90192,-6.74297 10.0311,-9.57726 1.20362,-1.60223 2.32302,-3.04423 2.48755,-3.20445 0.86389,-0.84127 5.18806,-9.47643 6.12692,-12.23517 0.25703,-0.75528 1.06781,-2.78717 1.74361,-4.36971 0.48004,-1.12413 0.87662,-6.1141 1.11132,-13.98305 0.20069,-6.72934 0.47116,-13.02171 0.60102,-13.98305 0.12986,-0.96133 0.38473,-2.79661 0.56636,-4.07839 0.18164,-1.28178 0.47863,-3.37924 0.65998,-4.66101 0.51001,-3.60464 0.77007,-5.14285 1.08353,-6.4089 0.15869,-0.64089 0.70766,-3.00053 1.21996,-5.24365 1.08661,-4.75779 1.32367,-5.72142 1.50497,-6.11758 0.0733,-0.16022 0.1836,-0.5535 0.24505,-0.87394 0.0614,-0.32045 0.42212,-1.33999 0.8015,-2.26566 0.37938,-0.92567 0.55362,-1.81918 0.38721,-1.98559 -0.1664,-0.16641 -0.0699,-0.58886 0.21444,-0.93879 0.28435,-0.34993 0.78715,-1.55387 1.11734,-2.67543 1.07184,-3.6408 3.1652,-9.00253 3.97452,-10.179957 0.43446,-0.632075 0.78993,-1.746349 0.78993,-2.476165 0,-0.72981 0.19818,-1.326928 0.44041,-1.326928 0.5077,0 2.21495,-3.569738 2.02018,-4.224046 -0.0715,-0.240334 0.1321,-0.43697 0.45255,-0.43697 0.32044,0 0.52872,-0.196637 0.46284,-0.436971 -0.121,-0.441375 0.5468,-1.777164 3.27682,-6.554555 0.82402,-1.442002 1.78735,-3.342823 2.14073,-4.224047 0.35337,-0.881223 0.89451,-1.602224 1.20251,-1.602224 0.30802,0 0.41634,-0.232474 0.24074,-0.51661 -0.17561,-0.284135 0.0577,-0.829474 0.51844,-1.211864 0.46075,-0.382384 1.13365,-1.591912 1.49533,-2.687834 0.36169,-1.095927 0.89618,-1.99259 1.18775,-1.99259 0.47854,0 3.64967,-4.541765 3.66119,-5.243645 0.003,-0.160222 0.28569,-0.589991 0.62902,-0.955036 0.34334,-0.365051 1.14861,-1.399109 1.7895,-2.297911 0.64089,-0.898807 1.62408,-2.034854 2.18485,-2.524552 0.56078,-0.489704 1.0196,-1.094279 1.0196,-1.343509 0,-0.44 1.03855,-1.685628 3.65675,-4.385877 0.69909,-0.721001 1.03984,-1.310911 0.75721,-1.310911 -0.28263,0 0.0506,-0.48957 0.74054,-1.08794 0.68992,-0.598364 1.2544,-1.38491 1.2544,-1.747881 0,-0.362965 0.39327,-0.659942 0.87394,-0.659942 0.48067,0 0.87394,-0.219679 0.87394,-0.488171 0,-0.501555 15.00578,-15.825388 15.49693,-15.825388 0.1503,0 0.99426,-0.721001 1.87547,-1.602225 0.8812,-0.881223 2.37991,-2.181655 3.33046,-2.889848 0.95056,-0.708194 2.35597,-1.756922 3.12313,-2.330509 0.76717,-0.573586 2.01253,-1.620877 2.76748,-2.327312 0.75495,-0.706435 1.37263,-1.12697 1.37263,-0.934521 0,0.192449 0.64294,-0.343833 1.42875,-1.191737 0.78581,-0.847905 1.6379,-1.54419 1.89354,-1.5473 0.25563,-0.0031 1.61596,-0.920748 3.02295,-2.039195 1.40698,-1.118447 2.71789,-2.038569 2.91313,-2.044717 0.19524,-0.0061 1.37517,-0.901599 2.62207,-1.989892 1.2469,-1.088294 3.41358,-2.568376 4.81484,-3.289072 1.40127,-0.720696 2.83836,-1.6605198 3.19355,-2.0884973 0.35519,-0.4279774 0.98512,-0.778141 1.39985,-0.778141 0.41473,0 0.84144,-0.1966367 0.94826,-0.4369703 0.10681,-0.2403337 1.43957,-1.0234726 2.96169,-1.740309 1.52211,-0.7168364 2.76747,-1.584402 2.76747,-1.927923 0,-0.3435217 0.26219,-0.4625471 0.58263,-0.2645011 0.32045,0.198046 0.58263,0.1115591 0.58263,-0.1921924 0,-0.3037515 0.32773,-0.5261455 0.72828,-0.4942088 0.81891,0.065292 8.16902,-3.49427291 10.30597,-4.991053 0.76495,-0.5357898 1.61027,-0.8385327 1.8785,-0.6727619 0.26822,0.1657702 0.48767,0.00827 0.48767,-0.3499958 0,-0.3582685 0.26218,-0.4893596 0.58263,-0.2913135 0.32044,0.198046 0.58263,0.066955 0.58263,-0.2913136 0,-0.3582685 0.27366,-0.4822614 0.60814,-0.2755401 0.33449,0.2067214 1.01639,0.037049 1.51535,-0.3770483 0.49896,-0.4140981 1.24077,-0.8018639 1.64847,-0.8617014 0.4077,-0.059838 1.62662,-0.4945392 2.7087,-0.9660034 1.08209,-0.4714636 3.0817,-1.2860887 4.4436,-1.8102789 1.36189,-0.5241897 3.45934,-1.3524011 4.66101,-1.8404702 1.20167,-0.488069 2.77575,-0.997569 3.49796,-1.132223 0.7222,-0.134654 1.63984,-0.452311 2.03919,-0.705905 0.39935,-0.253594 0.92273,-0.497867 1.16306,-0.54283 0.24034,-0.04496 0.50252,-0.136371 0.58263,-0.20313 0.0801,-0.06676 0.67002,-0.18288 1.31091,-0.258046 0.99899,-0.117164 2.39886,-0.569275 7.86547,-2.540267 1.59437,-0.574853 4.18929,-1.238243 6.11758,-1.563961 0.64089,-0.108256 3.49462,-0.755442 6.34161,-1.438191 2.847,-0.682749 5.79655,-1.29269 6.55456,-1.355425 0.75801,-0.06273 1.3782,-0.254087 1.3782,-0.425227 0,-0.171141 0.721,-0.356181 1.60222,-0.4112 0.88123,-0.05502 2.25768,-0.225091 3.05879,-0.377937 0.80112,-0.152846 2.75249,-0.450759 4.3364,-0.66203 1.58391,-0.21127 3.02963,-0.476708 3.21272,-0.589863 0.18308,-0.113154 2.55399,-0.382301 5.26868,-0.598104 2.71469,-0.215803 5.07856,-0.480601 5.25305,-0.588441 0.27884,-0.172333 5.77866,-0.633399 13.97365,-1.171451 1.442,-0.09468 4.39155,-0.330948 6.55455,-0.525047 l 3.93273,-0.352909 v 16.3215724 c 0,15.1391392 -0.0739,16.3247667 -1.01959,16.3656648 -1.41474,0.061181 -4.34188,0.2890716 -9.46769,0.737102 -2.40334,0.2100673 -6.71624,0.5304435 -9.58422,0.711947 -2.86799,0.1815035 -5.35872,0.4149773 -5.53496,0.5188306 -0.17624,0.1038539 -1.89354,0.3603932 -3.81621,0.5700882 -1.92266,0.209694 -4.2823,0.617713 -5.24364,0.906707 -0.96133,0.288996 -2.66552,0.66776 -3.78708,0.841701 -6.1583,0.955081 -13.72341,2.792712 -19.08103,4.634949 -2.32323,0.798849 -4.22405,1.304878 -4.22405,1.124509 0,-0.18037 -0.39327,-0.0016 -0.87394,0.397362 -0.48067,0.398918 -0.87394,0.530009 -0.87394,0.291313 0,-0.238696 -0.39327,-0.107605 -0.87394,0.291314 -0.48067,0.398918 -0.87394,0.530009 -0.87394,0.291313 0,-0.238696 -0.32773,-0.174399 -0.72829,0.142883 -0.40055,0.317281 -2.17028,1.038662 -3.93273,1.60307 -7.50868,2.404588 -24.08687,10.388136 -31.60752,15.221215 -2.163,1.390032 -3.93675,2.335985 -3.94165,2.102119 -0.005,-0.233872 -0.20155,-0.146892 -0.43697,0.193281 -0.23543,0.340178 -2.78769,2.23138 -5.6717,4.202676 -9.31772,6.368906 -28.85964,24.078446 -33.50106,30.359772 -0.80111,1.084165 -1.92803,2.515312 -2.50426,3.180335 -1.90721,2.201095 -8.45938,12.307357 -10.82511,16.69698 -0.77715,1.442002 -2.08609,3.670551 -2.90875,4.95233 -2.88077,4.488458 -6.0507,11.105098 -6.79066,14.174208 -0.1026,0.42558 -0.37723,1.21212 -0.61027,1.74788 -0.23305,0.53575 -0.52064,1.47788 -0.6391,2.09363 -0.11846,0.61574 -0.50445,1.46783 -0.85775,1.89354 -0.3533,0.4257 -0.49653,0.77401 -0.31827,0.77401 0.17826,0 -0.56107,2.62843 -1.64294,5.84097 -1.08187,3.21253 -2.11585,6.81753 -2.29773,8.01112 -0.18188,1.19358 -0.70695,4.13652 -1.16683,6.53985 -1.11808,5.84315 -1.68375,11.3174 -2.34798,22.72246 -0.15863,2.72378 -0.45255,7.04979 -0.65315,9.61335 -0.2006,2.56356 -0.40444,5.31647 -0.45298,6.11758 -0.0485,0.80112 -0.29579,1.7843 -0.54943,2.18486 -0.25366,0.40055 -0.28252,0.72828 -0.0642,0.72828 0.21837,0 0.0707,0.39327 -0.32827,0.87394 -0.39891,0.48067 -0.55678,0.87394 -0.35081,0.87394 0.20597,0 -0.1552,1.03828 -0.8026,2.3073 -0.6474,1.26901 -1.17709,2.82663 -1.17709,3.46137 0,0.63475 -0.26646,1.31877 -0.59213,1.52004 -0.32567,0.20128 -0.4413,0.61003 -0.25693,0.90833 0.18436,0.2983 0.0894,0.54237 -0.21113,0.54237 -0.52172,0 -2.06195,3.07877 -1.89248,3.78289 0.0446,0.18542 -0.32149,0.73975 -0.8136,1.23186 -0.49211,0.49212 -0.89475,1.2693 -0.89475,1.72708 0,0.45777 -0.27766,0.83232 -0.61701,0.83232 -0.33936,0 -0.45498,0.26218 -0.25693,0.58263 0.19804,0.32044 0.0874,0.58262 -0.24583,0.58262 -0.33325,0 -0.77042,0.65546 -0.97149,1.45657 -0.20106,0.80111 -0.59933,1.45657 -0.88504,1.45657 -0.2857,0 -0.51946,0.37455 -0.51946,0.83232 0,0.45779 -0.412,1.24433 -0.91556,1.74789 -0.50355,0.50355 -0.74701,0.91555 -0.54101,0.91555 0.206,0 -0.0375,0.412 -0.54101,0.91556 -0.50356,0.50355 -0.91556,1.2901 -0.91556,1.74788 0,0.45778 -0.25719,0.83233 -0.57153,0.83233 -0.31434,0 -0.73603,0.65545 -0.9371,1.45656 -0.20107,0.80112 -0.58912,1.45657 -0.86234,1.45657 -0.27322,0 -0.9658,0.49131 -1.53906,1.09179 -1.20892,1.26632 -5.36273,4.83696 -8.55777,7.3563 -1.21916,0.96134 -2.972,2.40334 -3.89519,3.20445 -0.92319,0.80112 -2.49374,2.11203 -3.49011,2.91314 -0.99637,0.80111 -2.4862,2.17757 -3.31072,3.05879 -0.82452,0.88123 -1.73198,1.60223 -2.01658,1.60223 -0.2846,0 -1.42105,0.721 -2.52545,1.60222 -1.10441,0.88122 -2.20468,1.6242 -2.44504,1.65104 -0.24037,0.0269 -1.22358,0.39816 -2.18491,0.82513 -0.96134,0.42696 -1.87898,0.80822 -2.0392,0.84723 -0.16022,0.039 -1.20895,0.48296 -2.33051,0.98654 -3.10577,1.3945 -5.50264,2.44232 -5.82627,2.54702 -0.34835,0.11269 -4.47319,1.86632 -6.11758,2.60082 -1.29305,0.57756 -7.66217,2.4466 -9.03072,2.6501 -0.48067,0.0715 -1.79158,0.31459 -2.91314,0.54027 -1.86102,0.37448 -3.47958,0.64769 -6.70021,1.13099 -0.64089,0.0962 -2.05249,0.37381 -3.13688,0.61697 -1.08439,0.24317 -2.78858,0.53588 -3.78708,0.65048 -1.80406,0.20706 -19.59524,0.61566 -19.78017,0.45428 z"
         style="fill:#2ea9e2;fill-opacity:1;stroke-width:0.58262712" />
      <path
         transform="translate(-49.523305,-6.9915254)"
         id="path4903"
         d="m -968.09164,298.08115 c -16.29814,-1.44606 -37.96416,-6.92726 -53.01906,-13.41309 -21.9882,-9.47276 -38.9131,-21.33744 -54.7973,-38.4139 -8.9437,-9.6151 -9.5549,-10.43328 -16.3202,-21.84851 -7.8722,-13.28278 -11.2043,-21.461 -15.0871,-37.02833 l -2.0634,-8.2728 v -16.86783 -16.86783 l 2.0403,-8.65175 c 4.3923,-18.62582 13.1076,-36.54105 25.4661,-52.348771 4.8649,-6.222569 7.9732,-9.393598 17.4188,-17.770127 11.1156,-9.857445 11.91,-10.435394 23.9243,-17.406906 16.6524,-9.662813 26.1621,-13.524541 45.63672,-18.532389 l 14.56567,-3.745521 14.71134,-0.697663 14.71133,-0.697663 v 15.576642 15.57664 l -1.31091,0.287812 c -0.721,0.1583 -6.29237,0.836502 -12.38082,1.507111 -21.37082,2.353884 -39.61153,8.469761 -57.10053,19.145081 -6.7847,4.141372 -10.1782,6.720225 -16.6832,12.678141 -10.7196,9.818023 -16.0153,16.490913 -22.243,28.027383 -4.3417,8.04293 -5.2804,10.33873 -7.6616,18.73926 -2.1841,7.70518 -2.8959,11.4134 -3.6475,19.00219 l -0.9338,9.4288 2.2195,11.29442 c 3.613,18.38481 8.6428,29.42124 20.0518,43.99747 4.726,6.03804 7.601,8.98181 14.7631,15.11669 7.8296,6.70666 10.1144,8.29079 19.0901,13.23583 14.1317,7.7857 25.80579,11.97046 41.07521,14.72406 10.577,1.90739 11.68886,1.9964 24.97017,1.99869 13.34184,0.002 14.35097,-0.0791 25.11964,-2.02656 14.2694,-2.58054 24.94291,-6.17901 38.2857,-12.90767 9.48271,-4.78205 10.00018,-5.14086 21.12313,-14.64642 10.34906,-8.84421 11.91005,-10.43002 16.89937,-17.16814 7.91233,-10.68565 12.63876,-19.92362 16.13792,-31.54212 l 2.82862,-9.39208 1.40893,-20.68347 1.40893,-20.68347 2.72799,-9.03051 c 2.195,-7.26611 3.92925,-11.42105 8.87616,-21.26568 5.49088,-10.927155 6.88743,-13.18233 13.06334,-21.094901 5.23865,-6.711754 9.20633,-10.990666 16.36543,-17.649151 8.33777,-7.754737 10.83266,-9.673026 21.19357,-16.295451 10.58104,-6.763124 13.11881,-8.089556 25.64073,-13.401764 12.7435,-5.406215 15.01005,-6.164699 27.29783,-9.135036 l 13.40042,-3.239298 21.55721,-0.74117 c 11.85646,-0.407645 21.62274,-0.773525 21.70286,-0.813069 0.0801,-0.03954 0.14565,-11.083551 0.14565,-24.5422371 0,-20.7044499 0.12682,-24.4703389 0.82405,-24.4703389 0.45322,0 9.04959,6.357918 19.10305,14.128708 10.05345,7.7707887 28.55975,21.984917 41.12511,31.586952 12.56535,9.602034 22.8461,17.778863 22.8461,18.170726 0,0.391869 -10.42175,8.812626 -23.15943,18.7128 -12.73769,9.900169 -31.28708,24.367284 -41.22087,32.149138 l -18.06144,14.148822 -0.15226,-23.373359 -0.15227,-23.373363 h -16.56252 -16.56252 l -11.83394,2.610565 c -23.10277,5.096461 -40.31073,13.60481 -56.86617,28.117055 -7.7772,6.817378 -9.75484,8.938689 -15.52618,16.654192 -7.33201,9.8019 -10.54547,15.72167 -14.83213,27.32346 l -2.85848,7.73647 -1.25073,18.35275 c -1.79759,26.37711 -3.31799,34.71289 -8.97964,49.23199 -3.69299,9.47054 -5.147,12.37795 -10.06376,20.12336 -15.07248,23.74374 -36.28568,41.90452 -64.19468,54.95754 -9.25672,4.32937 -12.61809,5.54405 -25.34428,9.15855 -19.57753,5.56043 -30.2473,6.9636 -51.96027,6.83325 -8.01112,-0.0481 -15.61441,-0.18049 -16.89619,-0.29421 z"
         style="fill:#2ea9e2;fill-opacity:1;stroke-width:0.58262712" />
    </g>
  </g>
</svg>
